<mxfile>
  <diagram id="_h6ZiUxZa-2Kxd4IdwST" name="Page-1">
    <mxGraphModel dx="3783" dy="1915" grid="1" gridSize="10" guides="1" tooltips="1" connect="1" arrows="1" fold="1" page="1" pageScale="1" pageWidth="850" pageHeight="1100" math="0" shadow="0">
      <root>
        <mxCell id="0" />
        <mxCell id="1" parent="0" />
        <mxCell id="2" value="&lt;font style=&quot;font-size: 20px;&quot;&gt;&amp;lt;&amp;lt;enumeration&amp;gt;&amp;gt;&lt;br&gt;TaxFilingStatus&lt;/font&gt;" style="swimlane;fontStyle=0;childLayout=stackLayout;horizontal=1;startSize=50;horizontalStack=0;resizeParent=1;resizeParentMax=0;resizeLast=0;collapsible=1;marginBottom=0;whiteSpace=wrap;html=1;" parent="1" vertex="1">
          <mxGeometry x="1790" y="150" width="240" height="110" as="geometry" />
        </mxCell>
        <mxCell id="3" value="&lt;font style=&quot;font-size: 15px;&quot;&gt;SINGLE&lt;/font&gt;" style="text;strokeColor=none;fillColor=none;align=left;verticalAlign=middle;spacingLeft=4;spacingRight=4;overflow=hidden;points=[[0,0.5],[1,0.5]];portConstraint=eastwest;rotatable=0;whiteSpace=wrap;html=1;" parent="2" vertex="1">
          <mxGeometry y="50" width="240" height="30" as="geometry" />
        </mxCell>
        <mxCell id="4" value="&lt;font style=&quot;font-size: 15px;&quot;&gt;MARRIED_COUPLE&lt;/font&gt;" style="text;strokeColor=none;fillColor=none;align=left;verticalAlign=middle;spacingLeft=4;spacingRight=4;overflow=hidden;points=[[0,0.5],[1,0.5]];portConstraint=eastwest;rotatable=0;whiteSpace=wrap;html=1;" parent="2" vertex="1">
          <mxGeometry y="80" width="240" height="30" as="geometry" />
        </mxCell>
        <mxCell id="128" style="edgeStyle=none;jumpSize=13;html=1;exitX=0.5;exitY=0;exitDx=0;exitDy=0;dashed=1;strokeWidth=3;fontSize=15;startArrow=classic;startFill=1;endArrow=none;endFill=0;startSize=20;endSize=20;sourcePerimeterSpacing=0;targetPerimeterSpacing=0;" parent="1" source="9" edge="1">
          <mxGeometry relative="1" as="geometry">
            <mxPoint x="1080" y="990" as="targetPoint" />
          </mxGeometry>
        </mxCell>
        <mxCell id="9" value="&lt;font style=&quot;font-size: 20px;&quot;&gt;TaxContext&lt;/font&gt;" style="swimlane;fontStyle=0;childLayout=stackLayout;horizontal=1;startSize=26;fillColor=none;horizontalStack=0;resizeParent=1;resizeParentMax=0;resizeLast=0;collapsible=1;marginBottom=0;html=1;" parent="1" vertex="1">
          <mxGeometry x="810" y="1084" width="340" height="392" as="geometry" />
        </mxCell>
        <mxCell id="10" value="&lt;font style=&quot;font-size: 15px;&quot;&gt;+ age: int {readOnly}&lt;/font&gt;" style="text;strokeColor=none;fillColor=none;align=left;verticalAlign=top;spacingLeft=4;spacingRight=4;overflow=hidden;rotatable=0;points=[[0,0.5],[1,0.5]];portConstraint=eastwest;whiteSpace=wrap;html=1;" parent="9" vertex="1">
          <mxGeometry y="26" width="340" height="26" as="geometry" />
        </mxCell>
        <mxCell id="11" value="&lt;font style=&quot;font-size: 15px;&quot;&gt;+ filing_status: TaxFilingStatus {readOnly}&lt;/font&gt;" style="text;strokeColor=none;fillColor=none;align=left;verticalAlign=top;spacingLeft=4;spacingRight=4;overflow=hidden;rotatable=0;points=[[0,0.5],[1,0.5]];portConstraint=eastwest;whiteSpace=wrap;html=1;" parent="9" vertex="1">
          <mxGeometry y="52" width="340" height="28" as="geometry" />
        </mxCell>
        <mxCell id="12" value="&lt;font style=&quot;font-size: 15px;&quot;&gt;+ state: string {readOnly}&lt;br&gt;&lt;br&gt;&lt;/font&gt;" style="text;strokeColor=none;fillColor=none;align=left;verticalAlign=top;spacingLeft=4;spacingRight=4;overflow=hidden;rotatable=0;points=[[0,0.5],[1,0.5]];portConstraint=eastwest;whiteSpace=wrap;html=1;" parent="9" vertex="1">
          <mxGeometry y="80" width="340" height="26" as="geometry" />
        </mxCell>
        <mxCell id="135" value="&lt;font style=&quot;font-size: 15px;&quot;&gt;+ Is_early_withdrawal:bool&lt;br&gt;&lt;/font&gt;" style="text;strokeColor=none;fillColor=none;align=left;verticalAlign=top;spacingLeft=4;spacingRight=4;overflow=hidden;rotatable=0;points=[[0,0.5],[1,0.5]];portConstraint=eastwest;whiteSpace=wrap;html=1;" parent="9" vertex="1">
          <mxGeometry y="106" width="340" height="26" as="geometry" />
        </mxCell>
        <mxCell id="145" value="&lt;font style=&quot;font-size: 15px;&quot;&gt;+ inflation_rate: float&lt;br&gt;&lt;/font&gt;" style="text;strokeColor=none;fillColor=none;align=left;verticalAlign=top;spacingLeft=4;spacingRight=4;overflow=hidden;rotatable=0;points=[[0,0.5],[1,0.5]];portConstraint=eastwest;whiteSpace=wrap;html=1;" parent="9" vertex="1">
          <mxGeometry y="132" width="340" height="26" as="geometry" />
        </mxCell>
        <mxCell id="230" value="&lt;font style=&quot;font-size: 15px;&quot;&gt;+ user_birth_year:int&amp;nbsp;&lt;br&gt;&lt;/font&gt;" style="text;strokeColor=none;fillColor=none;align=left;verticalAlign=top;spacingLeft=4;spacingRight=4;overflow=hidden;rotatable=0;points=[[0,0.5],[1,0.5]];portConstraint=eastwest;whiteSpace=wrap;html=1;" vertex="1" parent="9">
          <mxGeometry y="158" width="340" height="26" as="geometry" />
        </mxCell>
        <mxCell id="233" value="&lt;font style=&quot;font-size: 15px;&quot;&gt;+ spouse_birth_year: int&lt;br&gt;&lt;/font&gt;" style="text;strokeColor=none;fillColor=none;align=left;verticalAlign=top;spacingLeft=4;spacingRight=4;overflow=hidden;rotatable=0;points=[[0,0.5],[1,0.5]];portConstraint=eastwest;whiteSpace=wrap;html=1;" vertex="1" parent="9">
          <mxGeometry y="184" width="340" height="26" as="geometry" />
        </mxCell>
        <mxCell id="231" value="&lt;font style=&quot;font-size: 15px;&quot;&gt;+ user_life_expectancy: int&lt;br&gt;&lt;/font&gt;" style="text;strokeColor=none;fillColor=none;align=left;verticalAlign=top;spacingLeft=4;spacingRight=4;overflow=hidden;rotatable=0;points=[[0,0.5],[1,0.5]];portConstraint=eastwest;whiteSpace=wrap;html=1;" vertex="1" parent="9">
          <mxGeometry y="210" width="340" height="26" as="geometry" />
        </mxCell>
        <mxCell id="232" value="&lt;font style=&quot;font-size: 15px;&quot;&gt;+ spouse_life_expectancy: int&lt;br&gt;&lt;/font&gt;" style="text;strokeColor=none;fillColor=none;align=left;verticalAlign=top;spacingLeft=4;spacingRight=4;overflow=hidden;rotatable=0;points=[[0,0.5],[1,0.5]];portConstraint=eastwest;whiteSpace=wrap;html=1;" vertex="1" parent="9">
          <mxGeometry y="236" width="340" height="26" as="geometry" />
        </mxCell>
        <mxCell id="291" value="&lt;font style=&quot;font-size: 15px;&quot;&gt;+ current_year&lt;/font&gt;" style="text;strokeColor=none;fillColor=none;align=left;verticalAlign=top;spacingLeft=4;spacingRight=4;overflow=hidden;rotatable=0;points=[[0,0.5],[1,0.5]];portConstraint=eastwest;whiteSpace=wrap;html=1;" vertex="1" parent="9">
          <mxGeometry y="262" width="340" height="26" as="geometry" />
        </mxCell>
        <mxCell id="292" value="&lt;font style=&quot;font-size: 15px;&quot;&gt;+ taxable_income: float&lt;/font&gt;" style="text;strokeColor=none;fillColor=none;align=left;verticalAlign=top;spacingLeft=4;spacingRight=4;overflow=hidden;rotatable=0;points=[[0,0.5],[1,0.5]];portConstraint=eastwest;whiteSpace=wrap;html=1;" vertex="1" parent="9">
          <mxGeometry y="288" width="340" height="26" as="geometry" />
        </mxCell>
        <mxCell id="293" value="&lt;span style=&quot;font-size: 15px;&quot;&gt;+ tax_brackets: TaxBrackets&lt;/span&gt;" style="text;strokeColor=none;fillColor=none;align=left;verticalAlign=top;spacingLeft=4;spacingRight=4;overflow=hidden;rotatable=0;points=[[0,0.5],[1,0.5]];portConstraint=eastwest;whiteSpace=wrap;html=1;" vertex="1" parent="9">
          <mxGeometry y="314" width="340" height="26" as="geometry" />
        </mxCell>
        <mxCell id="294" value="&lt;font style=&quot;font-size: 15px;&quot;&gt;+ prev_tax_investments: Set&amp;lt;Investment&amp;gt;&lt;/font&gt;" style="text;strokeColor=none;fillColor=none;align=left;verticalAlign=top;spacingLeft=4;spacingRight=4;overflow=hidden;rotatable=0;points=[[0,0.5],[1,0.5]];portConstraint=eastwest;whiteSpace=wrap;html=1;" vertex="1" parent="9">
          <mxGeometry y="340" width="340" height="26" as="geometry" />
        </mxCell>
        <mxCell id="432" value="&lt;span style=&quot;font-size: 15px;&quot;&gt;+ capital_gains: float&lt;span style=&quot;white-space: pre;&quot;&gt;&#x9;&lt;/span&gt;&lt;/span&gt;" style="text;strokeColor=none;fillColor=none;align=left;verticalAlign=top;spacingLeft=4;spacingRight=4;overflow=hidden;rotatable=0;points=[[0,0.5],[1,0.5]];portConstraint=eastwest;whiteSpace=wrap;html=1;" vertex="1" parent="9">
          <mxGeometry y="366" width="340" height="26" as="geometry" />
        </mxCell>
        <mxCell id="40" value="ExemptionWithdrawalTax" style="swimlane;fontStyle=1;align=center;verticalAlign=top;childLayout=stackLayout;horizontal=1;startSize=40;horizontalStack=0;resizeParent=1;resizeParentMax=0;resizeLast=0;collapsible=1;marginBottom=0;fontSize=20;" parent="1" vertex="1">
          <mxGeometry x="320" y="940" width="360" height="148" as="geometry" />
        </mxCell>
        <mxCell id="41" value="- rate: float" style="text;strokeColor=none;fillColor=none;align=left;verticalAlign=top;spacingLeft=4;spacingRight=4;overflow=hidden;rotatable=0;points=[[0,0.5],[1,0.5]];portConstraint=eastwest;fontSize=15;" parent="40" vertex="1">
          <mxGeometry y="40" width="360" height="26" as="geometry" />
        </mxCell>
        <mxCell id="44" value="&lt;font style=&quot;font-size: 15px;&quot;&gt;- exemptions: List&amp;lt;WithDrawalExemptions&amp;gt;&lt;/font&gt;" style="text;strokeColor=none;align=left;fillColor=none;html=1;verticalAlign=middle;whiteSpace=wrap;rounded=0;" parent="40" vertex="1">
          <mxGeometry y="66" width="360" height="18" as="geometry" />
        </mxCell>
        <mxCell id="42" value="" style="line;strokeWidth=1;fillColor=none;align=left;verticalAlign=middle;spacingTop=-1;spacingLeft=3;spacingRight=3;rotatable=0;labelPosition=right;points=[];portConstraint=eastwest;strokeColor=inherit;" parent="40" vertex="1">
          <mxGeometry y="84" width="360" height="8" as="geometry" />
        </mxCell>
        <mxCell id="43" value="+ get_tax_rate(context: TaxContext): float" style="text;strokeColor=none;fillColor=none;align=left;verticalAlign=top;spacingLeft=4;spacingRight=4;overflow=hidden;rotatable=0;points=[[0,0.5],[1,0.5]];portConstraint=eastwest;fontSize=15;" parent="40" vertex="1">
          <mxGeometry y="92" width="360" height="26" as="geometry" />
        </mxCell>
        <mxCell id="140" value="+ add_exemption(exemption: WithdrawalExmption)&amp;nbsp;" style="text;html=1;align=center;verticalAlign=middle;resizable=0;points=[];autosize=1;strokeColor=none;fillColor=none;fontSize=15;" parent="40" vertex="1">
          <mxGeometry y="118" width="360" height="30" as="geometry" />
        </mxCell>
        <mxCell id="45" value="TaxBrackets" style="swimlane;fontStyle=1;align=center;verticalAlign=top;childLayout=stackLayout;horizontal=1;startSize=40;horizontalStack=0;resizeParent=1;resizeParentMax=0;resizeLast=0;collapsible=1;marginBottom=0;fontSize=20;" parent="1" vertex="1">
          <mxGeometry x="1060" y="220" width="360" height="164" as="geometry" />
        </mxCell>
        <mxCell id="46" value="- bracket: Dict&lt;(float, float) -&gt; float&gt;" style="text;strokeColor=none;fillColor=none;align=left;verticalAlign=top;spacingLeft=4;spacingRight=4;overflow=hidden;rotatable=0;points=[[0,0.5],[1,0.5]];portConstraint=eastwest;fontSize=15;" parent="45" vertex="1">
          <mxGeometry y="40" width="360" height="26" as="geometry" />
        </mxCell>
        <mxCell id="48" value="" style="line;strokeWidth=1;fillColor=none;align=left;verticalAlign=middle;spacingTop=-1;spacingLeft=3;spacingRight=3;rotatable=0;labelPosition=right;points=[];portConstraint=eastwest;strokeColor=inherit;" parent="45" vertex="1">
          <mxGeometry y="66" width="360" height="8" as="geometry" />
        </mxCell>
        <mxCell id="50" value="&lt;font style=&quot;font-size: 15px;&quot;&gt;+ add_rate(min: float, max: float, rate: float)&lt;/font&gt;" style="text;strokeColor=none;align=left;fillColor=none;html=1;verticalAlign=middle;whiteSpace=wrap;rounded=0;" parent="45" vertex="1">
          <mxGeometry y="74" width="360" height="30" as="geometry" />
        </mxCell>
        <mxCell id="49" value="+ adjust_for_inflation(context: TaxContext): float" style="text;strokeColor=none;fillColor=none;align=left;verticalAlign=top;spacingLeft=4;spacingRight=4;overflow=hidden;rotatable=0;points=[[0,0.5],[1,0.5]];portConstraint=eastwest;fontSize=15;" parent="45" vertex="1">
          <mxGeometry y="104" width="360" height="30" as="geometry" />
        </mxCell>
        <mxCell id="51" value="&lt;font style=&quot;font-size: 15px;&quot;&gt;+ calculate_tax(taxable_income: float): float&lt;/font&gt;" style="text;strokeColor=none;align=left;fillColor=none;html=1;verticalAlign=middle;whiteSpace=wrap;rounded=0;" parent="45" vertex="1">
          <mxGeometry y="134" width="360" height="30" as="geometry" />
        </mxCell>
        <mxCell id="111" style="edgeStyle=none;jumpSize=13;html=1;dashed=1;strokeWidth=3;fontSize=15;startArrow=none;startFill=0;endArrow=classic;endFill=1;endSize=12;sourcePerimeterSpacing=0;targetPerimeterSpacing=0;" parent="1" source="62" edge="1">
          <mxGeometry relative="1" as="geometry">
            <mxPoint x="1670" y="560" as="targetPoint" />
          </mxGeometry>
        </mxCell>
        <mxCell id="62" value="FederalTaxScraper" style="swimlane;fontStyle=1;align=center;verticalAlign=top;childLayout=stackLayout;horizontal=1;startSize=26;horizontalStack=0;resizeParent=1;resizeParentMax=0;resizeLast=0;collapsible=1;marginBottom=0;fontSize=20;" parent="1" vertex="1">
          <mxGeometry x="2000" y="717" width="370" height="138" as="geometry" />
        </mxCell>
        <mxCell id="63" value="- federal_tax_cache: Dict&lt;int, FederalTaxData&gt;" style="text;strokeColor=none;fillColor=none;align=left;verticalAlign=top;spacingLeft=4;spacingRight=4;overflow=hidden;rotatable=0;points=[[0,0.5],[1,0.5]];portConstraint=eastwest;fontSize=15;" parent="62" vertex="1">
          <mxGeometry y="26" width="370" height="26" as="geometry" />
        </mxCell>
        <mxCell id="262" value="- rmd_cache: Dict&lt;int, RMDTable&gt;" style="text;strokeColor=none;fillColor=none;align=left;verticalAlign=top;spacingLeft=4;spacingRight=4;overflow=hidden;rotatable=0;points=[[0,0.5],[1,0.5]];portConstraint=eastwest;fontSize=15;" vertex="1" parent="62">
          <mxGeometry y="52" width="370" height="26" as="geometry" />
        </mxCell>
        <mxCell id="64" value="" style="line;strokeWidth=1;fillColor=none;align=left;verticalAlign=middle;spacingTop=-1;spacingLeft=3;spacingRight=3;rotatable=0;labelPosition=right;points=[];portConstraint=eastwest;strokeColor=inherit;" parent="62" vertex="1">
          <mxGeometry y="78" width="370" height="8" as="geometry" />
        </mxCell>
        <mxCell id="65" value="+ scrape_federal_tax() -&gt; FederalTaxData" style="text;strokeColor=none;fillColor=none;align=left;verticalAlign=top;spacingLeft=4;spacingRight=4;overflow=hidden;rotatable=0;points=[[0,0.5],[1,0.5]];portConstraint=eastwest;fontSize=15;" parent="62" vertex="1">
          <mxGeometry y="86" width="370" height="26" as="geometry" />
        </mxCell>
        <mxCell id="261" value="+ scrape_rmd_table() -&gt; RMDTable" style="text;strokeColor=none;fillColor=none;align=left;verticalAlign=top;spacingLeft=4;spacingRight=4;overflow=hidden;rotatable=0;points=[[0,0.5],[1,0.5]];portConstraint=eastwest;fontSize=15;" vertex="1" parent="62">
          <mxGeometry y="112" width="370" height="26" as="geometry" />
        </mxCell>
        <mxCell id="123" style="edgeStyle=none;jumpSize=13;html=1;entryX=1;entryY=0.5;entryDx=0;entryDy=0;dashed=1;strokeWidth=3;fontSize=15;startArrow=none;startFill=0;endArrow=diamondThin;endFill=0;endSize=20;sourcePerimeterSpacing=0;targetPerimeterSpacing=0;startSize=20;" parent="1" source="70" target="50" edge="1">
          <mxGeometry relative="1" as="geometry">
            <Array as="points">
              <mxPoint x="1490" y="320" />
            </Array>
          </mxGeometry>
        </mxCell>
        <mxCell id="70" value="FederalTaxData" style="swimlane;fontStyle=0;childLayout=stackLayout;horizontal=1;startSize=26;fillColor=none;horizontalStack=0;resizeParent=1;resizeParentMax=0;resizeLast=0;collapsible=1;marginBottom=0;fontSize=20;" parent="1" vertex="1">
          <mxGeometry x="1310" y="485" width="350" height="130" as="geometry" />
        </mxCell>
        <mxCell id="71" value="+ income_tax_brackets: TaxBrackets" style="text;strokeColor=none;fillColor=none;align=left;verticalAlign=top;spacingLeft=4;spacingRight=4;overflow=hidden;rotatable=0;points=[[0,0.5],[1,0.5]];portConstraint=eastwest;fontSize=15;" parent="70" vertex="1">
          <mxGeometry y="26" width="350" height="26" as="geometry" />
        </mxCell>
        <mxCell id="72" value="+ gains_tax_brackets: TaxBrackets" style="text;strokeColor=none;fillColor=none;align=left;verticalAlign=top;spacingLeft=4;spacingRight=4;overflow=hidden;rotatable=0;points=[[0,0.5],[1,0.5]];portConstraint=eastwest;fontSize=15;" parent="70" vertex="1">
          <mxGeometry y="52" width="350" height="26" as="geometry" />
        </mxCell>
        <mxCell id="73" value="+ standard_deductions: float&#xa;" style="text;strokeColor=none;fillColor=none;align=left;verticalAlign=top;spacingLeft=4;spacingRight=4;overflow=hidden;rotatable=0;points=[[0,0.5],[1,0.5]];portConstraint=eastwest;fontSize=15;" parent="70" vertex="1">
          <mxGeometry y="78" width="350" height="26" as="geometry" />
        </mxCell>
        <mxCell id="74" value="+ social_security_taxable_percentage: float" style="text;strokeColor=none;fillColor=none;align=left;verticalAlign=top;spacingLeft=4;spacingRight=4;overflow=hidden;rotatable=0;points=[[0,0.5],[1,0.5]];portConstraint=eastwest;fontSize=15;" parent="70" vertex="1">
          <mxGeometry y="104" width="350" height="26" as="geometry" />
        </mxCell>
        <mxCell id="124" style="edgeStyle=none;jumpSize=13;html=1;entryX=0;entryY=0.5;entryDx=0;entryDy=0;dashed=1;strokeWidth=3;fontSize=15;startArrow=none;startFill=0;endArrow=diamondThin;endFill=0;endSize=20;sourcePerimeterSpacing=0;targetPerimeterSpacing=0;startSize=20;" parent="1" source="75" target="50" edge="1">
          <mxGeometry relative="1" as="geometry">
            <Array as="points">
              <mxPoint x="1010" y="310" />
            </Array>
          </mxGeometry>
        </mxCell>
        <mxCell id="75" value="StateTaxData" style="swimlane;fontStyle=0;childLayout=stackLayout;horizontal=1;startSize=26;fillColor=none;horizontalStack=0;resizeParent=1;resizeParentMax=0;resizeLast=0;collapsible=1;marginBottom=0;fontSize=20;" parent="1" vertex="1">
          <mxGeometry x="860" y="485" width="290" height="78" as="geometry" />
        </mxCell>
        <mxCell id="76" value="+ tax_brackets: TaxBrackets" style="text;strokeColor=none;fillColor=none;align=left;verticalAlign=top;spacingLeft=4;spacingRight=4;overflow=hidden;rotatable=0;points=[[0,0.5],[1,0.5]];portConstraint=eastwest;fontSize=15;" parent="75" vertex="1">
          <mxGeometry y="26" width="290" height="26" as="geometry" />
        </mxCell>
        <mxCell id="79" value="+ state_name: String" style="text;strokeColor=none;fillColor=none;align=left;verticalAlign=top;spacingLeft=4;spacingRight=4;overflow=hidden;rotatable=0;points=[[0,0.5],[1,0.5]];portConstraint=eastwest;fontSize=15;" parent="75" vertex="1">
          <mxGeometry y="52" width="290" height="26" as="geometry" />
        </mxCell>
        <mxCell id="80" value="FederalTaxService" style="swimlane;fontStyle=1;align=center;verticalAlign=top;childLayout=stackLayout;horizontal=1;startSize=40;horizontalStack=0;resizeParent=1;resizeParentMax=0;resizeLast=0;collapsible=1;marginBottom=0;fontSize=20;" parent="1" vertex="1">
          <mxGeometry x="1380" y="710" width="570" height="136" as="geometry" />
        </mxCell>
        <mxCell id="81" value="- tax_data: FederalTaxData" style="text;strokeColor=none;fillColor=none;align=left;verticalAlign=top;spacingLeft=4;spacingRight=4;overflow=hidden;rotatable=0;points=[[0,0.5],[1,0.5]];portConstraint=eastwest;fontSize=15;" parent="80" vertex="1">
          <mxGeometry y="40" width="570" height="26" as="geometry" />
        </mxCell>
        <mxCell id="82" value="" style="line;strokeWidth=1;fillColor=none;align=left;verticalAlign=middle;spacingTop=-1;spacingLeft=3;spacingRight=3;rotatable=0;labelPosition=right;points=[];portConstraint=eastwest;strokeColor=inherit;" parent="80" vertex="1">
          <mxGeometry y="66" width="570" height="14" as="geometry" />
        </mxCell>
        <mxCell id="83" value="+ compute_income_tax(income: float, context:TaxContext): float" style="text;strokeColor=none;fillColor=none;align=left;verticalAlign=top;spacingLeft=4;spacingRight=4;overflow=hidden;rotatable=0;points=[[0,0.5],[1,0.5]];portConstraint=eastwest;fontSize=15;" parent="80" vertex="1">
          <mxGeometry y="80" width="570" height="26" as="geometry" />
        </mxCell>
        <mxCell id="439" value="&lt;font style=&quot;font-size: 15px;&quot;&gt;+ calculate_capital_gains(context:TaxContext):float&lt;/font&gt;" style="text;html=1;align=left;verticalAlign=middle;resizable=0;points=[];autosize=1;strokeColor=none;fillColor=none;" vertex="1" parent="80">
          <mxGeometry y="106" width="570" height="30" as="geometry" />
        </mxCell>
        <mxCell id="107" value="" style="edgeStyle=none;html=1;strokeWidth=3;fontSize=15;endArrow=diamondThin;endFill=0;exitX=0.5;exitY=0;exitDx=0;exitDy=0;jumpSize=13;sourcePerimeterSpacing=0;targetPerimeterSpacing=0;entryX=0.548;entryY=1.051;entryDx=0;entryDy=0;entryPerimeter=0;endSize=20;" parent="1" source="80" target="74" edge="1">
          <mxGeometry relative="1" as="geometry">
            <Array as="points" />
          </mxGeometry>
        </mxCell>
        <mxCell id="108" style="edgeStyle=none;html=1;strokeWidth=3;fontSize=15;endArrow=diamondThin;endFill=0;endSize=20;" parent="1" source="92" edge="1">
          <mxGeometry relative="1" as="geometry">
            <mxPoint x="1006" y="567" as="targetPoint" />
          </mxGeometry>
        </mxCell>
        <mxCell id="92" value="StateTaxService" style="swimlane;fontStyle=1;align=center;verticalAlign=top;childLayout=stackLayout;horizontal=1;startSize=40;horizontalStack=0;resizeParent=1;resizeParentMax=0;resizeLast=0;collapsible=1;marginBottom=0;fontSize=20;" parent="1" vertex="1">
          <mxGeometry x="680" y="710" width="640" height="126" as="geometry" />
        </mxCell>
        <mxCell id="93" value="- tax_data: StateTaxData" style="text;strokeColor=none;fillColor=none;align=left;verticalAlign=top;spacingLeft=4;spacingRight=4;overflow=hidden;rotatable=0;points=[[0,0.5],[1,0.5]];portConstraint=eastwest;fontSize=17;" parent="92" vertex="1">
          <mxGeometry y="40" width="640" height="26" as="geometry" />
        </mxCell>
        <mxCell id="94" value="" style="line;strokeWidth=1;fillColor=none;align=left;verticalAlign=middle;spacingTop=-1;spacingLeft=3;spacingRight=3;rotatable=0;labelPosition=right;points=[];portConstraint=eastwest;strokeColor=inherit;" parent="92" vertex="1">
          <mxGeometry y="66" width="640" height="8" as="geometry" />
        </mxCell>
        <mxCell id="95" value="+ compute_income_tax(income: float, context: TaxContext): float" style="text;strokeColor=none;fillColor=none;align=left;verticalAlign=top;spacingLeft=4;spacingRight=4;overflow=hidden;rotatable=0;points=[[0,0.5],[1,0.5]];portConstraint=eastwest;fontSize=17;" parent="92" vertex="1">
          <mxGeometry y="74" width="640" height="26" as="geometry" />
        </mxCell>
        <mxCell id="69" value="+ load_from_yaml(file_path: String): StateTaxData" style="text;strokeColor=none;fillColor=none;align=left;verticalAlign=top;spacingLeft=4;spacingRight=4;overflow=hidden;rotatable=0;points=[[0,0.5],[1,0.5]];portConstraint=eastwest;fontSize=15;" parent="92" vertex="1">
          <mxGeometry y="100" width="640" height="26" as="geometry" />
        </mxCell>
        <mxCell id="96" value="&lt;&lt;interface&gt;&gt;&#xa;ITaxCalulator" style="swimlane;fontStyle=1;align=center;verticalAlign=top;childLayout=stackLayout;horizontal=1;startSize=60;horizontalStack=0;resizeParent=1;resizeParentMax=0;resizeLast=0;collapsible=1;marginBottom=0;fontSize=20;" parent="1" vertex="1">
          <mxGeometry x="1030" y="870" width="600" height="100" as="geometry" />
        </mxCell>
        <mxCell id="99" value="+ compute_income_tax(income: float, context: TaxContext): float" style="text;strokeColor=none;fillColor=none;align=left;verticalAlign=top;spacingLeft=4;spacingRight=4;overflow=hidden;rotatable=0;points=[[0,0.5],[1,0.5]];portConstraint=eastwest;fontSize=17;" parent="96" vertex="1">
          <mxGeometry y="60" width="600" height="40" as="geometry" />
        </mxCell>
        <mxCell id="105" value="" style="endArrow=block;html=1;dashed=1;entryX=0;entryY=0.5;entryDx=0;entryDy=0;exitX=0.29;exitY=1.121;exitDx=0;exitDy=0;exitPerimeter=0;endFill=1;strokeWidth=3;" parent="1" source="95" target="99" edge="1">
          <mxGeometry width="50" height="50" relative="1" as="geometry">
            <mxPoint x="940" y="970" as="sourcePoint" />
            <mxPoint x="990" y="920" as="targetPoint" />
            <Array as="points">
              <mxPoint x="860" y="960" />
            </Array>
          </mxGeometry>
        </mxCell>
        <mxCell id="106" value="" style="endArrow=block;html=1;dashed=1;entryX=1.008;entryY=-0.084;entryDx=0;entryDy=0;exitX=0.742;exitY=1.13;exitDx=0;exitDy=0;entryPerimeter=0;endFill=1;strokeWidth=3;exitPerimeter=0;" parent="1" source="83" target="99" edge="1">
          <mxGeometry width="50" height="50" relative="1" as="geometry">
            <mxPoint x="920.2600000000002" y="827.0399999999997" as="sourcePoint" />
            <mxPoint x="1100" y="950" as="targetPoint" />
            <Array as="points">
              <mxPoint x="1803" y="937" />
            </Array>
          </mxGeometry>
        </mxCell>
        <mxCell id="129" value="&lt;font style=&quot;font-size: 20px;&quot;&gt;use&lt;/font&gt;" style="text;html=1;align=center;verticalAlign=middle;resizable=0;points=[];autosize=1;strokeColor=none;fillColor=none;fontSize=15;" parent="1" vertex="1">
          <mxGeometry x="1030" y="1020" width="60" height="40" as="geometry" />
        </mxCell>
        <mxCell id="132" value="&lt;p style=&quot;margin:0px;margin-top:4px;text-align:center;&quot;&gt;&amp;lt;&amp;lt;enumeration&amp;gt;&amp;gt;&lt;br&gt;&lt;b&gt;State&lt;/b&gt;&lt;/p&gt;&lt;hr&gt;&lt;p style=&quot;margin:0px;margin-left:8px;text-align:left;&quot;&gt;NY&lt;br&gt;NJ&lt;/p&gt;&lt;p style=&quot;margin:0px;margin-left:8px;text-align:left;&quot;&gt;CT&lt;/p&gt;" style="shape=rect;html=1;overflow=fill;whiteSpace=wrap;strokeWidth=2;fontSize=15;" parent="1" vertex="1">
          <mxGeometry x="2240" y="130" width="200" height="130" as="geometry" />
        </mxCell>
        <mxCell id="136" style="edgeStyle=none;jumpSize=13;html=1;exitX=1.003;exitY=-0.093;exitDx=0;exitDy=0;entryX=0;entryY=0;entryDx=0;entryDy=0;strokeWidth=3;fontSize=15;startArrow=none;startFill=0;endArrow=none;endFill=0;startSize=20;endSize=20;sourcePerimeterSpacing=0;targetPerimeterSpacing=0;dashed=1;dashPattern=8 8;exitPerimeter=0;" parent="1" source="43" target="9" edge="1">
          <mxGeometry relative="1" as="geometry" />
        </mxCell>
        <mxCell id="137" value="use" style="text;html=1;align=center;verticalAlign=middle;resizable=0;points=[];autosize=1;strokeColor=none;fillColor=none;fontSize=15;" parent="1" vertex="1">
          <mxGeometry x="730" y="1030" width="50" height="30" as="geometry" />
        </mxCell>
        <mxCell id="430" style="edgeStyle=none;html=1;" edge="1" parent="1" source="159" target="99">
          <mxGeometry relative="1" as="geometry" />
        </mxCell>
        <mxCell id="159" value="&lt;font style=&quot;font-size: 20px;&quot;&gt;Simulation&lt;/font&gt;" style="swimlane;fontStyle=1;align=center;verticalAlign=top;childLayout=stackLayout;horizontal=1;startSize=40;horizontalStack=0;resizeParent=1;resizeParentMax=0;resizeLast=0;collapsible=1;marginBottom=0;whiteSpace=wrap;html=1;" vertex="1" parent="1">
          <mxGeometry x="1310" y="1510" width="330" height="490" as="geometry" />
        </mxCell>
        <mxCell id="160" value="&lt;span style=&quot;font-size: 15px;&quot;&gt;-&amp;nbsp; cash: Invesment&lt;/span&gt;" style="text;strokeColor=none;fillColor=none;align=left;verticalAlign=top;spacingLeft=4;spacingRight=4;overflow=hidden;rotatable=0;points=[[0,0.5],[1,0.5]];portConstraint=eastwest;whiteSpace=wrap;html=1;" vertex="1" parent="159">
          <mxGeometry y="40" width="330" height="26" as="geometry" />
        </mxCell>
        <mxCell id="163" value="&lt;span style=&quot;font-size: 15px;&quot;&gt;- tax_calculator: ITaxCalcualtor&lt;/span&gt;" style="text;strokeColor=none;fillColor=none;align=left;verticalAlign=top;spacingLeft=4;spacingRight=4;overflow=hidden;rotatable=0;points=[[0,0.5],[1,0.5]];portConstraint=eastwest;whiteSpace=wrap;html=1;" vertex="1" parent="159">
          <mxGeometry y="66" width="330" height="26" as="geometry" />
        </mxCell>
        <mxCell id="164" value="&lt;span style=&quot;font-size: 15px;&quot;&gt;- current_year: int&lt;/span&gt;" style="text;strokeColor=none;fillColor=none;align=left;verticalAlign=top;spacingLeft=4;spacingRight=4;overflow=hidden;rotatable=0;points=[[0,0.5],[1,0.5]];portConstraint=eastwest;whiteSpace=wrap;html=1;" vertex="1" parent="159">
          <mxGeometry y="92" width="330" height="26" as="geometry" />
        </mxCell>
        <mxCell id="165" value="&lt;span style=&quot;font-size: 15px;&quot;&gt;- scenario: Scenario&lt;/span&gt;" style="text;strokeColor=none;fillColor=none;align=left;verticalAlign=top;spacingLeft=4;spacingRight=4;overflow=hidden;rotatable=0;points=[[0,0.5],[1,0.5]];portConstraint=eastwest;whiteSpace=wrap;html=1;" vertex="1" parent="159">
          <mxGeometry y="118" width="330" height="26" as="geometry" />
        </mxCell>
        <mxCell id="166" value="&lt;span style=&quot;font-size: 15px;&quot;&gt;- tax_context: TaxContext&lt;/span&gt;" style="text;strokeColor=none;fillColor=none;align=left;verticalAlign=top;spacingLeft=4;spacingRight=4;overflow=hidden;rotatable=0;points=[[0,0.5],[1,0.5]];portConstraint=eastwest;whiteSpace=wrap;html=1;" vertex="1" parent="159">
          <mxGeometry y="144" width="330" height="26" as="geometry" />
        </mxCell>
        <mxCell id="167" value="&lt;span style=&quot;font-size: 15px;&quot;&gt;- scenario: Scenario&lt;/span&gt;" style="text;strokeColor=none;fillColor=none;align=left;verticalAlign=top;spacingLeft=4;spacingRight=4;overflow=hidden;rotatable=0;points=[[0,0.5],[1,0.5]];portConstraint=eastwest;whiteSpace=wrap;html=1;" vertex="1" parent="159">
          <mxGeometry y="170" width="330" height="26" as="geometry" />
        </mxCell>
        <mxCell id="161" value="" style="line;strokeWidth=1;fillColor=none;align=left;verticalAlign=middle;spacingTop=-1;spacingLeft=3;spacingRight=3;rotatable=0;labelPosition=right;points=[];portConstraint=eastwest;strokeColor=inherit;" vertex="1" parent="159">
          <mxGeometry y="196" width="330" height="8" as="geometry" />
        </mxCell>
        <mxCell id="162" value="&lt;span style=&quot;font-size: 15px;&quot;&gt;+ run(num_simulations: int): SimulationResult&lt;/span&gt;" style="text;strokeColor=none;fillColor=none;align=left;verticalAlign=top;spacingLeft=4;spacingRight=4;overflow=hidden;rotatable=0;points=[[0,0.5],[1,0.5]];portConstraint=eastwest;whiteSpace=wrap;html=1;" vertex="1" parent="159">
          <mxGeometry y="204" width="330" height="26" as="geometry" />
        </mxCell>
        <mxCell id="168" value="&lt;span style=&quot;font-size: 15px;&quot;&gt;- _simulate_year(): YearResult&lt;/span&gt;" style="text;strokeColor=none;fillColor=none;align=left;verticalAlign=top;spacingLeft=4;spacingRight=4;overflow=hidden;rotatable=0;points=[[0,0.5],[1,0.5]];portConstraint=eastwest;whiteSpace=wrap;html=1;" vertex="1" parent="159">
          <mxGeometry y="230" width="330" height="26" as="geometry" />
        </mxCell>
        <mxCell id="169" value="&lt;span style=&quot;font-size: 15px;&quot;&gt;- _process_income_events()&lt;/span&gt;" style="text;strokeColor=none;fillColor=none;align=left;verticalAlign=top;spacingLeft=4;spacingRight=4;overflow=hidden;rotatable=0;points=[[0,0.5],[1,0.5]];portConstraint=eastwest;whiteSpace=wrap;html=1;" vertex="1" parent="159">
          <mxGeometry y="256" width="330" height="26" as="geometry" />
        </mxCell>
        <mxCell id="170" value="&lt;span style=&quot;font-size: 15px;&quot;&gt;- _process_roth_conversions()&lt;/span&gt;" style="text;strokeColor=none;fillColor=none;align=left;verticalAlign=top;spacingLeft=4;spacingRight=4;overflow=hidden;rotatable=0;points=[[0,0.5],[1,0.5]];portConstraint=eastwest;whiteSpace=wrap;html=1;" vertex="1" parent="159">
          <mxGeometry y="282" width="330" height="26" as="geometry" />
        </mxCell>
        <mxCell id="172" value="&lt;span style=&quot;font-size: 15px;&quot;&gt;- _process_RMDs()&lt;/span&gt;" style="text;strokeColor=none;fillColor=none;align=left;verticalAlign=top;spacingLeft=4;spacingRight=4;overflow=hidden;rotatable=0;points=[[0,0.5],[1,0.5]];portConstraint=eastwest;whiteSpace=wrap;html=1;" vertex="1" parent="159">
          <mxGeometry y="308" width="330" height="26" as="geometry" />
        </mxCell>
        <mxCell id="173" value="&lt;span style=&quot;font-size: 15px;&quot;&gt;- _update_investments()&lt;/span&gt;" style="text;strokeColor=none;fillColor=none;align=left;verticalAlign=top;spacingLeft=4;spacingRight=4;overflow=hidden;rotatable=0;points=[[0,0.5],[1,0.5]];portConstraint=eastwest;whiteSpace=wrap;html=1;" vertex="1" parent="159">
          <mxGeometry y="334" width="330" height="26" as="geometry" />
        </mxCell>
        <mxCell id="176" value="&lt;span style=&quot;font-size: 15px;&quot;&gt;- _deduct_expense_ratio()&lt;/span&gt;" style="text;strokeColor=none;fillColor=none;align=left;verticalAlign=top;spacingLeft=4;spacingRight=4;overflow=hidden;rotatable=0;points=[[0,0.5],[1,0.5]];portConstraint=eastwest;whiteSpace=wrap;html=1;" vertex="1" parent="159">
          <mxGeometry y="360" width="330" height="26" as="geometry" />
        </mxCell>
        <mxCell id="174" value="&lt;span style=&quot;font-size: 15px;&quot;&gt;- _process_mandatory_expenses()&lt;/span&gt;" style="text;strokeColor=none;fillColor=none;align=left;verticalAlign=top;spacingLeft=4;spacingRight=4;overflow=hidden;rotatable=0;points=[[0,0.5],[1,0.5]];portConstraint=eastwest;whiteSpace=wrap;html=1;" vertex="1" parent="159">
          <mxGeometry y="386" width="330" height="26" as="geometry" />
        </mxCell>
        <mxCell id="175" value="&lt;span style=&quot;font-size: 15px;&quot;&gt;- _process_discretionary_expenses()&lt;/span&gt;" style="text;strokeColor=none;fillColor=none;align=left;verticalAlign=top;spacingLeft=4;spacingRight=4;overflow=hidden;rotatable=0;points=[[0,0.5],[1,0.5]];portConstraint=eastwest;whiteSpace=wrap;html=1;" vertex="1" parent="159">
          <mxGeometry y="412" width="330" height="26" as="geometry" />
        </mxCell>
        <mxCell id="171" value="&lt;span style=&quot;font-size: 15px;&quot;&gt;- _process_investment_event()&lt;/span&gt;" style="text;strokeColor=none;fillColor=none;align=left;verticalAlign=top;spacingLeft=4;spacingRight=4;overflow=hidden;rotatable=0;points=[[0,0.5],[1,0.5]];portConstraint=eastwest;whiteSpace=wrap;html=1;" vertex="1" parent="159">
          <mxGeometry y="438" width="330" height="26" as="geometry" />
        </mxCell>
        <mxCell id="177" value="&lt;span style=&quot;font-size: 15px;&quot;&gt;- _process_rebalancing()&lt;/span&gt;" style="text;strokeColor=none;fillColor=none;align=left;verticalAlign=top;spacingLeft=4;spacingRight=4;overflow=hidden;rotatable=0;points=[[0,0.5],[1,0.5]];portConstraint=eastwest;whiteSpace=wrap;html=1;" vertex="1" parent="159">
          <mxGeometry y="464" width="330" height="26" as="geometry" />
        </mxCell>
        <mxCell id="180" value="&lt;font style=&quot;font-size: 20px;&quot;&gt;SimulationResult&lt;/font&gt;" style="swimlane;fontStyle=0;childLayout=stackLayout;horizontal=1;startSize=26;fillColor=none;horizontalStack=0;resizeParent=1;resizeParentMax=0;resizeLast=0;collapsible=1;marginBottom=0;html=1;" vertex="1" parent="1">
          <mxGeometry x="810" y="1860" width="340" height="104" as="geometry" />
        </mxCell>
        <mxCell id="181" value="&lt;span style=&quot;font-size: 15px;&quot;&gt;+ yearly_detailss: List&amp;lt;YearlyDetails&amp;gt;&lt;/span&gt;" style="text;strokeColor=none;fillColor=none;align=left;verticalAlign=top;spacingLeft=4;spacingRight=4;overflow=hidden;rotatable=0;points=[[0,0.5],[1,0.5]];portConstraint=eastwest;whiteSpace=wrap;html=1;" vertex="1" parent="180">
          <mxGeometry y="26" width="340" height="26" as="geometry" />
        </mxCell>
        <mxCell id="516" value="&lt;span style=&quot;font-size: 15px;&quot;&gt;+ financial_goal: float&lt;/span&gt;" style="text;strokeColor=none;fillColor=none;align=left;verticalAlign=top;spacingLeft=4;spacingRight=4;overflow=hidden;rotatable=0;points=[[0,0.5],[1,0.5]];portConstraint=eastwest;whiteSpace=wrap;html=1;" vertex="1" parent="180">
          <mxGeometry y="52" width="340" height="26" as="geometry" />
        </mxCell>
        <mxCell id="183" value="&lt;font style=&quot;font-size: 15px;&quot;&gt;+ sucess_probability&lt;/font&gt;" style="text;strokeColor=none;fillColor=none;align=left;verticalAlign=top;spacingLeft=4;spacingRight=4;overflow=hidden;rotatable=0;points=[[0,0.5],[1,0.5]];portConstraint=eastwest;whiteSpace=wrap;html=1;" vertex="1" parent="180">
          <mxGeometry y="78" width="340" height="26" as="geometry" />
        </mxCell>
        <mxCell id="186" style="edgeStyle=none;html=1;entryX=0.5;entryY=0;entryDx=0;entryDy=0;exitX=-0.007;exitY=0.046;exitDx=0;exitDy=0;exitPerimeter=0;dashed=1;strokeWidth=3;" edge="1" parent="1" source="159" target="180">
          <mxGeometry relative="1" as="geometry">
            <Array as="points">
              <mxPoint x="1100" y="1670" />
            </Array>
          </mxGeometry>
        </mxCell>
        <mxCell id="215" value="&lt;font style=&quot;font-size: 20px;&quot;&gt;Scenario&lt;/font&gt;" style="swimlane;fontStyle=1;align=center;verticalAlign=top;childLayout=stackLayout;horizontal=1;startSize=50;horizontalStack=0;resizeParent=1;resizeParentMax=0;resizeLast=0;collapsible=1;marginBottom=0;whiteSpace=wrap;html=1;strokeWidth=2;" vertex="1" parent="1">
          <mxGeometry x="1890" y="1581" width="520" height="448" as="geometry" />
        </mxCell>
        <mxCell id="189" value="&lt;span style=&quot;font-size: 15px;&quot;&gt;- filling_status: TaxFillingStatus&lt;/span&gt;" style="text;strokeColor=none;fillColor=none;align=left;verticalAlign=top;spacingLeft=4;spacingRight=4;overflow=hidden;rotatable=0;points=[[0,0.5],[1,0.5]];portConstraint=eastwest;whiteSpace=wrap;html=1;" vertex="1" parent="215">
          <mxGeometry y="50" width="520" height="26" as="geometry" />
        </mxCell>
        <mxCell id="192" value="&lt;span style=&quot;font-size: 15px;&quot;&gt;- user_life_expectancy: int&lt;/span&gt;" style="text;strokeColor=none;fillColor=none;align=left;verticalAlign=top;spacingLeft=4;spacingRight=4;overflow=hidden;rotatable=0;points=[[0,0.5],[1,0.5]];portConstraint=eastwest;whiteSpace=wrap;html=1;" vertex="1" parent="215">
          <mxGeometry y="76" width="520" height="26" as="geometry" />
        </mxCell>
        <mxCell id="208" value="&lt;span style=&quot;font-size: 15px;&quot;&gt;- event_series: Set&amp;lt;EventSeries&amp;gt;&lt;/span&gt;" style="text;strokeColor=none;fillColor=none;align=left;verticalAlign=top;spacingLeft=4;spacingRight=4;overflow=hidden;rotatable=0;points=[[0,0.5],[1,0.5]];portConstraint=eastwest;whiteSpace=wrap;html=1;" vertex="1" parent="215">
          <mxGeometry y="102" width="520" height="26" as="geometry" />
        </mxCell>
        <mxCell id="213" value="&lt;span style=&quot;font-size: 15px;&quot;&gt;- user_residencee_state: string&lt;/span&gt;" style="text;strokeColor=none;fillColor=none;align=left;verticalAlign=top;spacingLeft=4;spacingRight=4;overflow=hidden;rotatable=0;points=[[0,0.5],[1,0.5]];portConstraint=eastwest;whiteSpace=wrap;html=1;" vertex="1" parent="215">
          <mxGeometry y="128" width="520" height="26" as="geometry" />
        </mxCell>
        <mxCell id="191" value="&lt;span style=&quot;font-size: 15px;&quot;&gt;- spouse_birth_year: int&lt;/span&gt;" style="text;strokeColor=none;fillColor=none;align=left;verticalAlign=top;spacingLeft=4;spacingRight=4;overflow=hidden;rotatable=0;points=[[0,0.5],[1,0.5]];portConstraint=eastwest;whiteSpace=wrap;html=1;" vertex="1" parent="215">
          <mxGeometry y="154" width="520" height="26" as="geometry" />
        </mxCell>
        <mxCell id="212" value="&lt;span style=&quot;font-size: 15px;&quot;&gt;- financial_goal: float&lt;/span&gt;" style="text;strokeColor=none;fillColor=none;align=left;verticalAlign=top;spacingLeft=4;spacingRight=4;overflow=hidden;rotatable=0;points=[[0,0.5],[1,0.5]];portConstraint=eastwest;whiteSpace=wrap;html=1;" vertex="1" parent="215">
          <mxGeometry y="180" width="520" height="26" as="geometry" />
        </mxCell>
        <mxCell id="206" value="&lt;span style=&quot;font-size: 15px;&quot;&gt;- spouse_life_expectancy: int&lt;/span&gt;" style="text;strokeColor=none;fillColor=none;align=left;verticalAlign=top;spacingLeft=4;spacingRight=4;overflow=hidden;rotatable=0;points=[[0,0.5],[1,0.5]];portConstraint=eastwest;whiteSpace=wrap;html=1;" vertex="1" parent="215">
          <mxGeometry y="206" width="520" height="26" as="geometry" />
        </mxCell>
        <mxCell id="211" value="&lt;span style=&quot;font-size: 15px;&quot;&gt;- sharing_settings: TODO&lt;/span&gt;" style="text;strokeColor=none;fillColor=none;align=left;verticalAlign=top;spacingLeft=4;spacingRight=4;overflow=hidden;rotatable=0;points=[[0,0.5],[1,0.5]];portConstraint=eastwest;whiteSpace=wrap;html=1;" vertex="1" parent="215">
          <mxGeometry y="232" width="520" height="26" as="geometry" />
        </mxCell>
        <mxCell id="193" value="&lt;span style=&quot;font-size: 15px;&quot;&gt;- distribution: DistributionType&lt;/span&gt;" style="text;strokeColor=none;fillColor=none;align=left;verticalAlign=top;spacingLeft=4;spacingRight=4;overflow=hidden;rotatable=0;points=[[0,0.5],[1,0.5]];portConstraint=eastwest;whiteSpace=wrap;html=1;" vertex="1" parent="215">
          <mxGeometry y="258" width="520" height="26" as="geometry" />
        </mxCell>
        <mxCell id="209" value="&lt;span style=&quot;font-size: 15px;&quot;&gt;- inflation_assumption: float&lt;/span&gt;" style="text;strokeColor=none;fillColor=none;align=left;verticalAlign=top;spacingLeft=4;spacingRight=4;overflow=hidden;rotatable=0;points=[[0,0.5],[1,0.5]];portConstraint=eastwest;whiteSpace=wrap;html=1;" vertex="1" parent="215">
          <mxGeometry y="284" width="520" height="26" as="geometry" />
        </mxCell>
        <mxCell id="210" value="&lt;span style=&quot;font-size: 15px;&quot;&gt;- roth_optiminzer_settings: RothConversionSettings | None&lt;/span&gt;" style="text;strokeColor=none;fillColor=none;align=left;verticalAlign=top;spacingLeft=4;spacingRight=4;overflow=hidden;rotatable=0;points=[[0,0.5],[1,0.5]];portConstraint=eastwest;whiteSpace=wrap;html=1;" vertex="1" parent="215">
          <mxGeometry y="310" width="520" height="26" as="geometry" />
        </mxCell>
        <mxCell id="207" value="&lt;span style=&quot;font-size: 15px;&quot;&gt;- investments: Set&amp;lt;Invesment&amp;gt;&lt;/span&gt;" style="text;strokeColor=none;fillColor=none;align=left;verticalAlign=top;spacingLeft=4;spacingRight=4;overflow=hidden;rotatable=0;points=[[0,0.5],[1,0.5]];portConstraint=eastwest;whiteSpace=wrap;html=1;" vertex="1" parent="215">
          <mxGeometry y="336" width="520" height="26" as="geometry" />
        </mxCell>
        <mxCell id="190" value="&lt;span style=&quot;font-size: 15px;&quot;&gt;- user_birth_year: int&lt;/span&gt;" style="text;strokeColor=none;fillColor=none;align=left;verticalAlign=top;spacingLeft=4;spacingRight=4;overflow=hidden;rotatable=0;points=[[0,0.5],[1,0.5]];portConstraint=eastwest;whiteSpace=wrap;html=1;" vertex="1" parent="215">
          <mxGeometry y="362" width="520" height="26" as="geometry" />
        </mxCell>
        <mxCell id="188" value="&lt;span style=&quot;font-size: 15px;&quot;&gt;- name: string&lt;/span&gt;" style="text;strokeColor=none;fillColor=none;align=left;verticalAlign=top;spacingLeft=4;spacingRight=4;overflow=hidden;rotatable=0;points=[[0,0.5],[1,0.5]];portConstraint=eastwest;whiteSpace=wrap;html=1;" vertex="1" parent="215">
          <mxGeometry y="388" width="520" height="26" as="geometry" />
        </mxCell>
        <mxCell id="217" value="" style="line;strokeWidth=1;fillColor=none;align=left;verticalAlign=middle;spacingTop=-1;spacingLeft=3;spacingRight=3;rotatable=0;labelPosition=right;points=[];portConstraint=eastwest;strokeColor=inherit;" vertex="1" parent="215">
          <mxGeometry y="414" width="520" height="8" as="geometry" />
        </mxCell>
        <mxCell id="229" value="&lt;span style=&quot;font-size: 15px;&quot;&gt;+ create_tax_context(): TaxContext&lt;/span&gt;&lt;div&gt;&lt;span style=&quot;font-size: 15px;&quot;&gt;&lt;br&gt;&lt;/span&gt;&lt;/div&gt;" style="text;strokeColor=none;fillColor=none;align=left;verticalAlign=top;spacingLeft=4;spacingRight=4;overflow=hidden;rotatable=0;points=[[0,0.5],[1,0.5]];portConstraint=eastwest;whiteSpace=wrap;html=1;" vertex="1" parent="215">
          <mxGeometry y="422" width="520" height="26" as="geometry" />
        </mxCell>
        <mxCell id="257" value="RMDTable" style="swimlane;fontStyle=1;align=center;verticalAlign=top;childLayout=stackLayout;horizontal=1;startSize=36;horizontalStack=0;resizeParent=1;resizeParentMax=0;resizeLast=0;collapsible=1;marginBottom=0;fontSize=20;" vertex="1" parent="1">
          <mxGeometry x="1990" y="934" width="500" height="96" as="geometry" />
        </mxCell>
        <mxCell id="258" value="- uniform_lifetime_table: Map&lt;int, float&gt;" style="text;strokeColor=none;fillColor=none;align=left;verticalAlign=top;spacingLeft=4;spacingRight=4;overflow=hidden;rotatable=0;points=[[0,0.5],[1,0.5]];portConstraint=eastwest;fontSize=15;" vertex="1" parent="257">
          <mxGeometry y="36" width="500" height="26" as="geometry" />
        </mxCell>
        <mxCell id="259" value="" style="line;strokeWidth=1;fillColor=none;align=left;verticalAlign=middle;spacingTop=-1;spacingLeft=3;spacingRight=3;rotatable=0;labelPosition=right;points=[];portConstraint=eastwest;strokeColor=inherit;" vertex="1" parent="257">
          <mxGeometry y="62" width="500" height="8" as="geometry" />
        </mxCell>
        <mxCell id="260" value="+ generate_conversoin_plan(context: TaxContext): ConversionPlan" style="text;strokeColor=none;fillColor=none;align=left;verticalAlign=top;spacingLeft=4;spacingRight=4;overflow=hidden;rotatable=0;points=[[0,0.5],[1,0.5]];portConstraint=eastwest;fontSize=15;" vertex="1" parent="257">
          <mxGeometry y="70" width="500" height="26" as="geometry" />
        </mxCell>
        <mxCell id="270" value="ConversionPlan" style="swimlane;fontStyle=1;align=center;verticalAlign=top;childLayout=stackLayout;horizontal=1;startSize=36;horizontalStack=0;resizeParent=1;resizeParentMax=0;resizeLast=0;collapsible=1;marginBottom=0;fontSize=20;" vertex="1" parent="1">
          <mxGeometry x="2890" y="925" width="480" height="114" as="geometry" />
        </mxCell>
        <mxCell id="271" value="+ year: int" style="text;strokeColor=none;fillColor=none;align=left;verticalAlign=top;spacingLeft=4;spacingRight=4;overflow=hidden;rotatable=0;points=[[0,0.5],[1,0.5]];portConstraint=eastwest;fontSize=15;" vertex="1" parent="270">
          <mxGeometry y="36" width="480" height="26" as="geometry" />
        </mxCell>
        <mxCell id="279" value="+ amount_to_convert: float" style="text;strokeColor=none;fillColor=none;align=left;verticalAlign=top;spacingLeft=4;spacingRight=4;overflow=hidden;rotatable=0;points=[[0,0.5],[1,0.5]];portConstraint=eastwest;fontSize=15;" vertex="1" parent="270">
          <mxGeometry y="62" width="480" height="26" as="geometry" />
        </mxCell>
        <mxCell id="280" value="+ investments_to_transfer: List&lt;InvestmentTransfer&gt;" style="text;strokeColor=none;fillColor=none;align=left;verticalAlign=top;spacingLeft=4;spacingRight=4;overflow=hidden;rotatable=0;points=[[0,0.5],[1,0.5]];portConstraint=eastwest;fontSize=15;" vertex="1" parent="270">
          <mxGeometry y="88" width="480" height="26" as="geometry" />
        </mxCell>
        <mxCell id="290" style="edgeStyle=none;html=1;endArrow=classic;endFill=1;dashed=1;strokeWidth=3;" edge="1" parent="1" source="274">
          <mxGeometry relative="1" as="geometry">
            <mxPoint x="2790" y="700" as="targetPoint" />
          </mxGeometry>
        </mxCell>
        <mxCell id="274" value="RothConversionSettings" style="swimlane;fontStyle=1;align=center;verticalAlign=top;childLayout=stackLayout;horizontal=1;startSize=36;horizontalStack=0;resizeParent=1;resizeParentMax=0;resizeLast=0;collapsible=1;marginBottom=0;fontSize=20;" vertex="1" parent="1">
          <mxGeometry x="2410" y="402" width="480" height="148" as="geometry" />
        </mxCell>
        <mxCell id="275" value="- start_year: int" style="text;strokeColor=none;fillColor=none;align=left;verticalAlign=top;spacingLeft=4;spacingRight=4;overflow=hidden;rotatable=0;points=[[0,0.5],[1,0.5]];portConstraint=eastwest;fontSize=15;" vertex="1" parent="274">
          <mxGeometry y="36" width="480" height="26" as="geometry" />
        </mxCell>
        <mxCell id="286" value="- end_year: int" style="text;strokeColor=none;fillColor=none;align=left;verticalAlign=top;spacingLeft=4;spacingRight=4;overflow=hidden;rotatable=0;points=[[0,0.5],[1,0.5]];portConstraint=eastwest;fontSize=15;" vertex="1" parent="274">
          <mxGeometry y="62" width="480" height="26" as="geometry" />
        </mxCell>
        <mxCell id="287" value="- conversion_priority: List&lt;Investment&gt;" style="text;strokeColor=none;fillColor=none;align=left;verticalAlign=top;spacingLeft=4;spacingRight=4;overflow=hidden;rotatable=0;points=[[0,0.5],[1,0.5]];portConstraint=eastwest;fontSize=15;" vertex="1" parent="274">
          <mxGeometry y="88" width="480" height="26" as="geometry" />
        </mxCell>
        <mxCell id="276" value="" style="line;strokeWidth=1;fillColor=none;align=left;verticalAlign=middle;spacingTop=-1;spacingLeft=3;spacingRight=3;rotatable=0;labelPosition=right;points=[];portConstraint=eastwest;strokeColor=inherit;" vertex="1" parent="274">
          <mxGeometry y="114" width="480" height="8" as="geometry" />
        </mxCell>
        <mxCell id="277" value="+ generate_conversoin_plan(context: TaxContext): ConversionPlan" style="text;strokeColor=none;fillColor=none;align=left;verticalAlign=top;spacingLeft=4;spacingRight=4;overflow=hidden;rotatable=0;points=[[0,0.5],[1,0.5]];portConstraint=eastwest;fontSize=15;" vertex="1" parent="274">
          <mxGeometry y="122" width="480" height="26" as="geometry" />
        </mxCell>
        <mxCell id="278" style="edgeStyle=none;html=1;entryX=-0.004;entryY=1.011;entryDx=0;entryDy=0;entryPerimeter=0;dashed=1;strokeWidth=3;" edge="1" parent="1" source="258" target="271">
          <mxGeometry relative="1" as="geometry" />
        </mxCell>
        <mxCell id="281" value="InvestmentTransfer" style="swimlane;fontStyle=1;align=center;verticalAlign=top;childLayout=stackLayout;horizontal=1;startSize=36;horizontalStack=0;resizeParent=1;resizeParentMax=0;resizeLast=0;collapsible=1;marginBottom=0;fontSize=20;" vertex="1" parent="1">
          <mxGeometry x="2560" y="703" width="480" height="114" as="geometry" />
        </mxCell>
        <mxCell id="282" value="+ source: Investment" style="text;strokeColor=none;fillColor=none;align=left;verticalAlign=top;spacingLeft=4;spacingRight=4;overflow=hidden;rotatable=0;points=[[0,0.5],[1,0.5]];portConstraint=eastwest;fontSize=15;" vertex="1" parent="281">
          <mxGeometry y="36" width="480" height="26" as="geometry" />
        </mxCell>
        <mxCell id="283" value="+ target: Investment" style="text;strokeColor=none;fillColor=none;align=left;verticalAlign=top;spacingLeft=4;spacingRight=4;overflow=hidden;rotatable=0;points=[[0,0.5],[1,0.5]];portConstraint=eastwest;fontSize=15;" vertex="1" parent="281">
          <mxGeometry y="62" width="480" height="26" as="geometry" />
        </mxCell>
        <mxCell id="284" value="+ amount: float" style="text;strokeColor=none;fillColor=none;align=left;verticalAlign=top;spacingLeft=4;spacingRight=4;overflow=hidden;rotatable=0;points=[[0,0.5],[1,0.5]];portConstraint=eastwest;fontSize=15;" vertex="1" parent="281">
          <mxGeometry y="88" width="480" height="26" as="geometry" />
        </mxCell>
        <mxCell id="285" style="edgeStyle=none;html=1;entryX=0.521;entryY=1.115;entryDx=0;entryDy=0;entryPerimeter=0;endArrow=none;endFill=0;endSize=20;startArrow=diamond;startFill=1;startSize=20;" edge="1" parent="1" source="270" target="284">
          <mxGeometry relative="1" as="geometry">
            <Array as="points">
              <mxPoint x="2830" y="880" />
            </Array>
          </mxGeometry>
        </mxCell>
        <mxCell id="295" value="RebalanceEventSeries" style="swimlane;fontStyle=1;align=center;verticalAlign=top;childLayout=stackLayout;horizontal=1;startSize=36;horizontalStack=0;resizeParent=1;resizeParentMax=0;resizeLast=0;collapsible=1;marginBottom=0;fontSize=20;" vertex="1" parent="1">
          <mxGeometry x="3500" y="1320" width="480" height="90" as="geometry" />
        </mxCell>
        <mxCell id="296" value="- asset_allocation: AssetAllocation" style="text;strokeColor=none;fillColor=none;align=left;verticalAlign=top;spacingLeft=4;spacingRight=4;overflow=hidden;rotatable=0;points=[[0,0.5],[1,0.5]];portConstraint=eastwest;fontSize=15;" vertex="1" parent="295">
          <mxGeometry y="36" width="480" height="26" as="geometry" />
        </mxCell>
        <mxCell id="297" value="- account_type: AccountType" style="text;strokeColor=none;fillColor=none;align=left;verticalAlign=top;spacingLeft=4;spacingRight=4;overflow=hidden;rotatable=0;points=[[0,0.5],[1,0.5]];portConstraint=eastwest;fontSize=15;" vertex="1" parent="295">
          <mxGeometry y="62" width="480" height="28" as="geometry" />
        </mxCell>
        <mxCell id="303" value="InvestmentEventSeries" style="swimlane;fontStyle=1;align=center;verticalAlign=top;childLayout=stackLayout;horizontal=1;startSize=36;horizontalStack=0;resizeParent=1;resizeParentMax=0;resizeLast=0;collapsible=1;marginBottom=0;fontSize=20;" vertex="1" parent="1">
          <mxGeometry x="2950" y="1308" width="480" height="114" as="geometry" />
        </mxCell>
        <mxCell id="304" value="- asset_allocation: AssetAllocation" style="text;strokeColor=none;fillColor=none;align=left;verticalAlign=top;spacingLeft=4;spacingRight=4;overflow=hidden;rotatable=0;points=[[0,0.5],[1,0.5]];portConstraint=eastwest;fontSize=15;" vertex="1" parent="303">
          <mxGeometry y="36" width="480" height="26" as="geometry" />
        </mxCell>
        <mxCell id="305" value="- maximum_cash: float" style="text;strokeColor=none;fillColor=none;align=left;verticalAlign=top;spacingLeft=4;spacingRight=4;overflow=hidden;rotatable=0;points=[[0,0.5],[1,0.5]];portConstraint=eastwest;fontSize=15;" vertex="1" parent="303">
          <mxGeometry y="62" width="480" height="26" as="geometry" />
        </mxCell>
        <mxCell id="307" value="- excess: float" style="text;strokeColor=none;fillColor=none;align=left;verticalAlign=top;spacingLeft=4;spacingRight=4;overflow=hidden;rotatable=0;points=[[0,0.5],[1,0.5]];portConstraint=eastwest;fontSize=15;" vertex="1" parent="303">
          <mxGeometry y="88" width="480" height="26" as="geometry" />
        </mxCell>
        <mxCell id="308" value="AssetAllocation" style="swimlane;fontStyle=1;align=center;verticalAlign=top;childLayout=stackLayout;horizontal=1;startSize=36;horizontalStack=0;resizeParent=1;resizeParentMax=0;resizeLast=0;collapsible=1;marginBottom=0;fontSize=20;" vertex="1" parent="1">
          <mxGeometry x="3170" y="1088" width="480" height="114" as="geometry" />
        </mxCell>
        <mxCell id="309" value="- allocationType: string" style="text;strokeColor=none;fillColor=none;align=left;verticalAlign=top;spacingLeft=4;spacingRight=4;overflow=hidden;rotatable=0;points=[[0,0.5],[1,0.5]];portConstraint=eastwest;fontSize=15;" vertex="1" parent="308">
          <mxGeometry y="36" width="480" height="26" as="geometry" />
        </mxCell>
        <mxCell id="310" value="- fixedAllocation: Map&lt;String, float&gt;" style="text;strokeColor=none;fillColor=none;align=left;verticalAlign=top;spacingLeft=4;spacingRight=4;overflow=hidden;rotatable=0;points=[[0,0.5],[1,0.5]];portConstraint=eastwest;fontSize=15;" vertex="1" parent="308">
          <mxGeometry y="62" width="480" height="26" as="geometry" />
        </mxCell>
        <mxCell id="311" value="- glidePath: GlidePath" style="text;strokeColor=none;fillColor=none;align=left;verticalAlign=top;spacingLeft=4;spacingRight=4;overflow=hidden;rotatable=0;points=[[0,0.5],[1,0.5]];portConstraint=eastwest;fontSize=15;" vertex="1" parent="308">
          <mxGeometry y="88" width="480" height="26" as="geometry" />
        </mxCell>
        <mxCell id="312" value="GlidePath" style="swimlane;fontStyle=1;align=center;verticalAlign=top;childLayout=stackLayout;horizontal=1;startSize=36;horizontalStack=0;resizeParent=1;resizeParentMax=0;resizeLast=0;collapsible=1;marginBottom=0;fontSize=20;" vertex="1" parent="1">
          <mxGeometry x="3180" y="760" width="480" height="140" as="geometry" />
        </mxCell>
        <mxCell id="313" value="- start_year: int" style="text;strokeColor=none;fillColor=none;align=left;verticalAlign=top;spacingLeft=4;spacingRight=4;overflow=hidden;rotatable=0;points=[[0,0.5],[1,0.5]];portConstraint=eastwest;fontSize=15;" vertex="1" parent="312">
          <mxGeometry y="36" width="480" height="26" as="geometry" />
        </mxCell>
        <mxCell id="314" value="- end_year: int" style="text;strokeColor=none;fillColor=none;align=left;verticalAlign=top;spacingLeft=4;spacingRight=4;overflow=hidden;rotatable=0;points=[[0,0.5],[1,0.5]];portConstraint=eastwest;fontSize=15;" vertex="1" parent="312">
          <mxGeometry y="62" width="480" height="26" as="geometry" />
        </mxCell>
        <mxCell id="315" value="- start_percentages: List&lt;float&gt;" style="text;strokeColor=none;fillColor=none;align=left;verticalAlign=top;spacingLeft=4;spacingRight=4;overflow=hidden;rotatable=0;points=[[0,0.5],[1,0.5]];portConstraint=eastwest;fontSize=15;" vertex="1" parent="312">
          <mxGeometry y="88" width="480" height="26" as="geometry" />
        </mxCell>
        <mxCell id="316" value="- end_percentage: List&lt;float&gt;" style="text;strokeColor=none;fillColor=none;align=left;verticalAlign=top;spacingLeft=4;spacingRight=4;overflow=hidden;rotatable=0;points=[[0,0.5],[1,0.5]];portConstraint=eastwest;fontSize=15;" vertex="1" parent="312">
          <mxGeometry y="114" width="480" height="26" as="geometry" />
        </mxCell>
        <mxCell id="318" style="edgeStyle=none;html=1;entryX=-0.007;entryY=0.093;entryDx=0;entryDy=0;entryPerimeter=0;endArrow=diamondThin;endFill=1;endSize=20;exitX=0.554;exitY=-0.011;exitDx=0;exitDy=0;exitPerimeter=0;" edge="1" parent="1" source="303" target="310">
          <mxGeometry relative="1" as="geometry">
            <Array as="points">
              <mxPoint x="3050" y="1150" />
            </Array>
          </mxGeometry>
        </mxCell>
        <mxCell id="320" style="edgeStyle=none;html=1;entryX=1.005;entryY=1.093;entryDx=0;entryDy=0;entryPerimeter=0;endArrow=diamondThin;endFill=1;endSize=20;exitX=0.413;exitY=-0.032;exitDx=0;exitDy=0;exitPerimeter=0;" edge="1" parent="1" source="295" target="309">
          <mxGeometry relative="1" as="geometry">
            <Array as="points">
              <mxPoint x="3750" y="1200" />
            </Array>
          </mxGeometry>
        </mxCell>
        <mxCell id="321" value="IncomeEventSeries" style="swimlane;fontStyle=1;align=center;verticalAlign=top;childLayout=stackLayout;horizontal=1;startSize=36;horizontalStack=0;resizeParent=1;resizeParentMax=0;resizeLast=0;collapsible=1;marginBottom=0;fontSize=20;" vertex="1" parent="1">
          <mxGeometry x="2650" y="1800" width="480" height="166" as="geometry" />
        </mxCell>
        <mxCell id="322" value="- initial_amount: float" style="text;strokeColor=none;fillColor=none;align=left;verticalAlign=top;spacingLeft=4;spacingRight=4;overflow=hidden;rotatable=0;points=[[0,0.5],[1,0.5]];portConstraint=eastwest;fontSize=15;" vertex="1" parent="321">
          <mxGeometry y="36" width="480" height="26" as="geometry" />
        </mxCell>
        <mxCell id="324" value="- annual_change: StochasticChange" style="text;strokeColor=none;fillColor=none;align=left;verticalAlign=top;spacingLeft=4;spacingRight=4;overflow=hidden;rotatable=0;points=[[0,0.5],[1,0.5]];portConstraint=eastwest;fontSize=15;" vertex="1" parent="321">
          <mxGeometry y="62" width="480" height="26" as="geometry" />
        </mxCell>
        <mxCell id="323" value="- inflation_adjustment: bool" style="text;strokeColor=none;fillColor=none;align=left;verticalAlign=top;spacingLeft=4;spacingRight=4;overflow=hidden;rotatable=0;points=[[0,0.5],[1,0.5]];portConstraint=eastwest;fontSize=15;" vertex="1" parent="321">
          <mxGeometry y="88" width="480" height="26" as="geometry" />
        </mxCell>
        <mxCell id="325" value="- ower_percentage: float" style="text;strokeColor=none;fillColor=none;align=left;verticalAlign=top;spacingLeft=4;spacingRight=4;overflow=hidden;rotatable=0;points=[[0,0.5],[1,0.5]];portConstraint=eastwest;fontSize=15;" vertex="1" parent="321">
          <mxGeometry y="114" width="480" height="26" as="geometry" />
        </mxCell>
        <mxCell id="326" value="- income_type: string" style="text;strokeColor=none;fillColor=none;align=left;verticalAlign=top;spacingLeft=4;spacingRight=4;overflow=hidden;rotatable=0;points=[[0,0.5],[1,0.5]];portConstraint=eastwest;fontSize=15;" vertex="1" parent="321">
          <mxGeometry y="140" width="480" height="26" as="geometry" />
        </mxCell>
        <mxCell id="327" style="edgeStyle=none;html=1;entryX=0.484;entryY=1.029;entryDx=0;entryDy=0;entryPerimeter=0;endArrow=none;endFill=0;endSize=20;startArrow=diamondThin;startFill=1;startSize=20;" edge="1" parent="1" source="308" target="316">
          <mxGeometry relative="1" as="geometry" />
        </mxCell>
        <mxCell id="334" value="ExpenseEventSeries" style="swimlane;fontStyle=1;align=center;verticalAlign=top;childLayout=stackLayout;horizontal=1;startSize=36;horizontalStack=0;resizeParent=1;resizeParentMax=0;resizeLast=0;collapsible=1;marginBottom=0;fontSize=20;" vertex="1" parent="1">
          <mxGeometry x="3710" y="1800" width="480" height="166" as="geometry" />
        </mxCell>
        <mxCell id="335" value="- initial_amount: float" style="text;strokeColor=none;fillColor=none;align=left;verticalAlign=top;spacingLeft=4;spacingRight=4;overflow=hidden;rotatable=0;points=[[0,0.5],[1,0.5]];portConstraint=eastwest;fontSize=15;" vertex="1" parent="334">
          <mxGeometry y="36" width="480" height="26" as="geometry" />
        </mxCell>
        <mxCell id="336" value="- annual_change: StochasticChange" style="text;strokeColor=none;fillColor=none;align=left;verticalAlign=top;spacingLeft=4;spacingRight=4;overflow=hidden;rotatable=0;points=[[0,0.5],[1,0.5]];portConstraint=eastwest;fontSize=15;" vertex="1" parent="334">
          <mxGeometry y="62" width="480" height="26" as="geometry" />
        </mxCell>
        <mxCell id="337" value="- inflation_adjustment: bool" style="text;strokeColor=none;fillColor=none;align=left;verticalAlign=top;spacingLeft=4;spacingRight=4;overflow=hidden;rotatable=0;points=[[0,0.5],[1,0.5]];portConstraint=eastwest;fontSize=15;" vertex="1" parent="334">
          <mxGeometry y="88" width="480" height="26" as="geometry" />
        </mxCell>
        <mxCell id="338" value="- ower_percentage: float" style="text;strokeColor=none;fillColor=none;align=left;verticalAlign=top;spacingLeft=4;spacingRight=4;overflow=hidden;rotatable=0;points=[[0,0.5],[1,0.5]];portConstraint=eastwest;fontSize=15;" vertex="1" parent="334">
          <mxGeometry y="114" width="480" height="26" as="geometry" />
        </mxCell>
        <mxCell id="339" value="- is_discretionary: bool " style="text;strokeColor=none;fillColor=none;align=left;verticalAlign=top;spacingLeft=4;spacingRight=4;overflow=hidden;rotatable=0;points=[[0,0.5],[1,0.5]];portConstraint=eastwest;fontSize=15;" vertex="1" parent="334">
          <mxGeometry y="140" width="480" height="26" as="geometry" />
        </mxCell>
        <mxCell id="341" value="EventSeries" style="swimlane;fontStyle=1;align=center;verticalAlign=top;childLayout=stackLayout;horizontal=1;startSize=36;horizontalStack=0;resizeParent=1;resizeParentMax=0;resizeLast=0;collapsible=1;marginBottom=0;fontSize=20;" vertex="1" parent="1">
          <mxGeometry x="3140" y="1570" width="480" height="166" as="geometry" />
        </mxCell>
        <mxCell id="342" value="- name: string" style="text;strokeColor=none;fillColor=none;align=left;verticalAlign=top;spacingLeft=4;spacingRight=4;overflow=hidden;rotatable=0;points=[[0,0.5],[1,0.5]];portConstraint=eastwest;fontSize=15;" vertex="1" parent="341">
          <mxGeometry y="36" width="480" height="26" as="geometry" />
        </mxCell>
        <mxCell id="343" value="- description: string" style="text;strokeColor=none;fillColor=none;align=left;verticalAlign=top;spacingLeft=4;spacingRight=4;overflow=hidden;rotatable=0;points=[[0,0.5],[1,0.5]];portConstraint=eastwest;fontSize=15;" vertex="1" parent="341">
          <mxGeometry y="62" width="480" height="26" as="geometry" />
        </mxCell>
        <mxCell id="344" value="- start_year: float" style="text;strokeColor=none;fillColor=none;align=left;verticalAlign=top;spacingLeft=4;spacingRight=4;overflow=hidden;rotatable=0;points=[[0,0.5],[1,0.5]];portConstraint=eastwest;fontSize=15;" vertex="1" parent="341">
          <mxGeometry y="88" width="480" height="26" as="geometry" />
        </mxCell>
        <mxCell id="345" value="- duration: float" style="text;strokeColor=none;fillColor=none;align=left;verticalAlign=top;spacingLeft=4;spacingRight=4;overflow=hidden;rotatable=0;points=[[0,0.5],[1,0.5]];portConstraint=eastwest;fontSize=15;" vertex="1" parent="341">
          <mxGeometry y="114" width="480" height="26" as="geometry" />
        </mxCell>
        <mxCell id="346" value="- type: EventType" style="text;strokeColor=none;fillColor=none;align=left;verticalAlign=top;spacingLeft=4;spacingRight=4;overflow=hidden;rotatable=0;points=[[0,0.5],[1,0.5]];portConstraint=eastwest;fontSize=15;" vertex="1" parent="341">
          <mxGeometry y="140" width="480" height="26" as="geometry" />
        </mxCell>
        <mxCell id="347" style="edgeStyle=none;html=1;entryX=0;entryY=0.5;entryDx=0;entryDy=0;endArrow=block;endFill=1;strokeWidth=3;" edge="1" parent="1" source="321" target="344">
          <mxGeometry relative="1" as="geometry" />
        </mxCell>
        <mxCell id="348" style="edgeStyle=none;html=1;entryX=0;entryY=0;entryDx=0;entryDy=0;endArrow=block;endFill=1;strokeWidth=3;exitX=0.467;exitY=1.118;exitDx=0;exitDy=0;exitPerimeter=0;" edge="1" parent="1" source="297">
          <mxGeometry relative="1" as="geometry">
            <mxPoint x="4161.724137931034" y="1410" as="sourcePoint" />
            <mxPoint x="3610" y="1570" as="targetPoint" />
          </mxGeometry>
        </mxCell>
        <mxCell id="349" style="edgeStyle=none;html=1;entryX=0;entryY=0;entryDx=0;entryDy=0;endArrow=block;endFill=1;strokeWidth=3;" edge="1" parent="1" source="307" target="341">
          <mxGeometry relative="1" as="geometry">
            <Array as="points">
              <mxPoint x="3100" y="1540" />
            </Array>
          </mxGeometry>
        </mxCell>
        <mxCell id="350" style="edgeStyle=none;html=1;entryX=1;entryY=1.22;entryDx=0;entryDy=0;entryPerimeter=0;endArrow=block;endFill=1;strokeWidth=3;" edge="1" parent="1" source="334" target="346">
          <mxGeometry relative="1" as="geometry" />
        </mxCell>
        <mxCell id="357" value="&lt;font style=&quot;font-size: 20px;&quot;&gt;&amp;lt;&amp;lt;enumeration&amp;gt;&amp;gt;&lt;br&gt;EventType&lt;/font&gt;" style="swimlane;fontStyle=0;childLayout=stackLayout;horizontal=1;startSize=50;horizontalStack=0;resizeParent=1;resizeParentMax=0;resizeLast=0;collapsible=1;marginBottom=0;whiteSpace=wrap;html=1;" vertex="1" parent="1">
          <mxGeometry x="2750" y="90" width="240" height="200" as="geometry" />
        </mxCell>
        <mxCell id="358" value="&lt;font style=&quot;font-size: 15px;&quot;&gt;INCOME&lt;/font&gt;" style="text;strokeColor=none;fillColor=none;align=left;verticalAlign=middle;spacingLeft=4;spacingRight=4;overflow=hidden;points=[[0,0.5],[1,0.5]];portConstraint=eastwest;rotatable=0;whiteSpace=wrap;html=1;" vertex="1" parent="357">
          <mxGeometry y="50" width="240" height="30" as="geometry" />
        </mxCell>
        <mxCell id="359" value="&lt;span style=&quot;font-size: 15px;&quot;&gt;EXPENSE&lt;/span&gt;" style="text;strokeColor=none;fillColor=none;align=left;verticalAlign=middle;spacingLeft=4;spacingRight=4;overflow=hidden;points=[[0,0.5],[1,0.5]];portConstraint=eastwest;rotatable=0;whiteSpace=wrap;html=1;" vertex="1" parent="357">
          <mxGeometry y="80" width="240" height="30" as="geometry" />
        </mxCell>
        <mxCell id="360" value="&lt;span style=&quot;font-size: 15px;&quot;&gt;INVEST&lt;/span&gt;" style="text;strokeColor=none;fillColor=none;align=left;verticalAlign=middle;spacingLeft=4;spacingRight=4;overflow=hidden;points=[[0,0.5],[1,0.5]];portConstraint=eastwest;rotatable=0;whiteSpace=wrap;html=1;" vertex="1" parent="357">
          <mxGeometry y="110" width="240" height="30" as="geometry" />
        </mxCell>
        <mxCell id="361" value="&lt;span style=&quot;font-size: 15px;&quot;&gt;REBALANCE&lt;/span&gt;" style="text;strokeColor=none;fillColor=none;align=left;verticalAlign=middle;spacingLeft=4;spacingRight=4;overflow=hidden;points=[[0,0.5],[1,0.5]];portConstraint=eastwest;rotatable=0;whiteSpace=wrap;html=1;" vertex="1" parent="357">
          <mxGeometry y="140" width="240" height="30" as="geometry" />
        </mxCell>
        <mxCell id="362" value="&lt;span style=&quot;font-size: 15px;&quot;&gt;TRANSFER&lt;/span&gt;" style="text;strokeColor=none;fillColor=none;align=left;verticalAlign=middle;spacingLeft=4;spacingRight=4;overflow=hidden;points=[[0,0.5],[1,0.5]];portConstraint=eastwest;rotatable=0;whiteSpace=wrap;html=1;" vertex="1" parent="357">
          <mxGeometry y="170" width="240" height="30" as="geometry" />
        </mxCell>
        <mxCell id="369" value="&lt;font style=&quot;font-size: 20px;&quot;&gt;Investment&lt;/font&gt;" style="swimlane;fontStyle=1;align=center;verticalAlign=top;childLayout=stackLayout;horizontal=1;startSize=40;horizontalStack=0;resizeParent=1;resizeParentMax=0;resizeLast=0;collapsible=1;marginBottom=0;whiteSpace=wrap;html=1;" vertex="1" parent="1">
          <mxGeometry x="2590" y="1060" width="260" height="204" as="geometry" />
        </mxCell>
        <mxCell id="370" value="&lt;span style=&quot;font-size: 15px;&quot;&gt;- name: string&lt;/span&gt;" style="text;strokeColor=none;fillColor=none;align=left;verticalAlign=top;spacingLeft=4;spacingRight=4;overflow=hidden;rotatable=0;points=[[0,0.5],[1,0.5]];portConstraint=eastwest;whiteSpace=wrap;html=1;" vertex="1" parent="369">
          <mxGeometry y="40" width="260" height="26" as="geometry" />
        </mxCell>
        <mxCell id="373" value="&lt;span style=&quot;font-size: 15px;&quot;&gt;- asset: AssetType&lt;/span&gt;" style="text;strokeColor=none;fillColor=none;align=left;verticalAlign=top;spacingLeft=4;spacingRight=4;overflow=hidden;rotatable=0;points=[[0,0.5],[1,0.5]];portConstraint=eastwest;whiteSpace=wrap;html=1;" vertex="1" parent="369">
          <mxGeometry y="66" width="260" height="26" as="geometry" />
        </mxCell>
        <mxCell id="374" value="&lt;span style=&quot;font-size: 15px;&quot;&gt;- account_type: AccountType&lt;/span&gt;" style="text;strokeColor=none;fillColor=none;align=left;verticalAlign=top;spacingLeft=4;spacingRight=4;overflow=hidden;rotatable=0;points=[[0,0.5],[1,0.5]];portConstraint=eastwest;whiteSpace=wrap;html=1;" vertex="1" parent="369">
          <mxGeometry y="92" width="260" height="26" as="geometry" />
        </mxCell>
        <mxCell id="375" value="&lt;span style=&quot;font-size: 15px;&quot;&gt;- start_value: float&lt;/span&gt;" style="text;strokeColor=none;fillColor=none;align=left;verticalAlign=top;spacingLeft=4;spacingRight=4;overflow=hidden;rotatable=0;points=[[0,0.5],[1,0.5]];portConstraint=eastwest;whiteSpace=wrap;html=1;" vertex="1" parent="369">
          <mxGeometry y="118" width="260" height="26" as="geometry" />
        </mxCell>
        <mxCell id="376" value="&lt;span style=&quot;font-size: 15px;&quot;&gt;- current_value: float&lt;/span&gt;" style="text;strokeColor=none;fillColor=none;align=left;verticalAlign=top;spacingLeft=4;spacingRight=4;overflow=hidden;rotatable=0;points=[[0,0.5],[1,0.5]];portConstraint=eastwest;whiteSpace=wrap;html=1;" vertex="1" parent="369">
          <mxGeometry y="144" width="260" height="26" as="geometry" />
        </mxCell>
        <mxCell id="371" value="" style="line;strokeWidth=1;fillColor=none;align=left;verticalAlign=middle;spacingTop=-1;spacingLeft=3;spacingRight=3;rotatable=0;labelPosition=right;points=[];portConstraint=eastwest;strokeColor=inherit;" vertex="1" parent="369">
          <mxGeometry y="170" width="260" height="8" as="geometry" />
        </mxCell>
        <mxCell id="372" value="&lt;span style=&quot;font-size: 15px;&quot;&gt;- calculate_fees(): float&lt;/span&gt;" style="text;strokeColor=none;fillColor=none;align=left;verticalAlign=top;spacingLeft=4;spacingRight=4;overflow=hidden;rotatable=0;points=[[0,0.5],[1,0.5]];portConstraint=eastwest;whiteSpace=wrap;html=1;" vertex="1" parent="369">
          <mxGeometry y="178" width="260" height="26" as="geometry" />
        </mxCell>
        <mxCell id="380" style="edgeStyle=none;html=1;exitX=0;exitY=0.5;exitDx=0;exitDy=0;entryX=1;entryY=0.5;entryDx=0;entryDy=0;startArrow=classic;startFill=1;endArrow=none;endFill=0;dashed=1;strokeWidth=3;" edge="1" parent="1" source="342" target="193">
          <mxGeometry relative="1" as="geometry" />
        </mxCell>
        <mxCell id="382" style="edgeStyle=none;html=1;entryX=0.5;entryY=0;entryDx=0;entryDy=0;dashed=1;strokeWidth=2;" edge="1" parent="1" source="284" target="369">
          <mxGeometry relative="1" as="geometry" />
        </mxCell>
        <mxCell id="383" style="edgeStyle=none;html=1;entryX=0;entryY=0;entryDx=0;entryDy=0;exitX=0.044;exitY=1.165;exitDx=0;exitDy=0;exitPerimeter=0;strokeWidth=3;dashed=1;dashPattern=8 8;" edge="1" parent="1" source="277" target="369">
          <mxGeometry relative="1" as="geometry" />
        </mxCell>
        <mxCell id="384" style="edgeStyle=none;html=1;exitX=1;exitY=0.5;exitDx=0;exitDy=0;entryX=0.149;entryY=1.124;entryDx=0;entryDy=0;entryPerimeter=0;dashed=1;strokeWidth=3;" edge="1" parent="1" source="192" target="372">
          <mxGeometry relative="1" as="geometry" />
        </mxCell>
        <mxCell id="385" value="AssetType" style="swimlane;fontStyle=1;align=center;verticalAlign=top;childLayout=stackLayout;horizontal=1;startSize=36;horizontalStack=0;resizeParent=1;resizeParentMax=0;resizeLast=0;collapsible=1;marginBottom=0;fontSize=20;" vertex="1" parent="1">
          <mxGeometry x="1970" y="1044" width="490" height="202" as="geometry" />
        </mxCell>
        <mxCell id="386" value="- name: string" style="text;strokeColor=none;fillColor=none;align=left;verticalAlign=top;spacingLeft=4;spacingRight=4;overflow=hidden;rotatable=0;points=[[0,0.5],[1,0.5]];portConstraint=eastwest;fontSize=15;" vertex="1" parent="385">
          <mxGeometry y="36" width="490" height="26" as="geometry" />
        </mxCell>
        <mxCell id="387" value="- description: string" style="text;strokeColor=none;fillColor=none;align=left;verticalAlign=top;spacingLeft=4;spacingRight=4;overflow=hidden;rotatable=0;points=[[0,0.5],[1,0.5]];portConstraint=eastwest;fontSize=15;" vertex="1" parent="385">
          <mxGeometry y="62" width="490" height="28" as="geometry" />
        </mxCell>
        <mxCell id="388" value="- annual_return: StochasticChange" style="text;strokeColor=none;fillColor=none;align=left;verticalAlign=top;spacingLeft=4;spacingRight=4;overflow=hidden;rotatable=0;points=[[0,0.5],[1,0.5]];portConstraint=eastwest;fontSize=15;" vertex="1" parent="385">
          <mxGeometry y="90" width="490" height="28" as="geometry" />
        </mxCell>
        <mxCell id="389" value="- expense_ratio: float" style="text;strokeColor=none;fillColor=none;align=left;verticalAlign=top;spacingLeft=4;spacingRight=4;overflow=hidden;rotatable=0;points=[[0,0.5],[1,0.5]];portConstraint=eastwest;fontSize=15;" vertex="1" parent="385">
          <mxGeometry y="118" width="490" height="28" as="geometry" />
        </mxCell>
        <mxCell id="394" value="- dividend_yield: float" style="text;strokeColor=none;fillColor=none;align=left;verticalAlign=top;spacingLeft=4;spacingRight=4;overflow=hidden;rotatable=0;points=[[0,0.5],[1,0.5]];portConstraint=eastwest;fontSize=15;" vertex="1" parent="385">
          <mxGeometry y="146" width="490" height="28" as="geometry" />
        </mxCell>
        <mxCell id="390" value="- is_tax_exempt: bool" style="text;strokeColor=none;fillColor=none;align=left;verticalAlign=top;spacingLeft=4;spacingRight=4;overflow=hidden;rotatable=0;points=[[0,0.5],[1,0.5]];portConstraint=eastwest;fontSize=15;" vertex="1" parent="385">
          <mxGeometry y="174" width="490" height="28" as="geometry" />
        </mxCell>
        <mxCell id="395" style="edgeStyle=none;html=1;entryX=1.02;entryY=0.107;entryDx=0;entryDy=0;entryPerimeter=0;endArrow=diamondThin;endFill=1;endSize=20;" edge="1" parent="1" source="374" target="389">
          <mxGeometry relative="1" as="geometry" />
        </mxCell>
        <mxCell id="411" value="&lt;font style=&quot;font-size: 20px;&quot;&gt;&amp;lt;&amp;lt;enumeration&amp;gt;&amp;gt;&lt;br&gt;ChangeType&lt;/font&gt;" style="swimlane;fontStyle=0;childLayout=stackLayout;horizontal=1;startSize=50;horizontalStack=0;resizeParent=1;resizeParentMax=0;resizeLast=0;collapsible=1;marginBottom=0;whiteSpace=wrap;html=1;" vertex="1" parent="1">
          <mxGeometry x="3030" y="210" width="240" height="110" as="geometry" />
        </mxCell>
        <mxCell id="412" value="&lt;span style=&quot;font-size: 15px;&quot;&gt;FIXED_AMOUNT&lt;/span&gt;" style="text;strokeColor=none;fillColor=none;align=left;verticalAlign=middle;spacingLeft=4;spacingRight=4;overflow=hidden;points=[[0,0.5],[1,0.5]];portConstraint=eastwest;rotatable=0;whiteSpace=wrap;html=1;" vertex="1" parent="411">
          <mxGeometry y="50" width="240" height="30" as="geometry" />
        </mxCell>
        <mxCell id="415" value="&lt;span style=&quot;font-size: 15px;&quot;&gt;PERCENTAGE&lt;/span&gt;" style="text;strokeColor=none;fillColor=none;align=left;verticalAlign=middle;spacingLeft=4;spacingRight=4;overflow=hidden;points=[[0,0.5],[1,0.5]];portConstraint=eastwest;rotatable=0;whiteSpace=wrap;html=1;" vertex="1" parent="411">
          <mxGeometry y="80" width="240" height="30" as="geometry" />
        </mxCell>
        <mxCell id="417" value="&lt;font style=&quot;font-size: 20px;&quot;&gt;&amp;lt;&amp;lt;enumeration&amp;gt;&amp;gt;&lt;br&gt;DistributionType&lt;/font&gt;" style="swimlane;fontStyle=0;childLayout=stackLayout;horizontal=1;startSize=50;horizontalStack=0;resizeParent=1;resizeParentMax=0;resizeLast=0;collapsible=1;marginBottom=0;whiteSpace=wrap;html=1;" vertex="1" parent="1">
          <mxGeometry x="3340" y="110" width="240" height="170" as="geometry" />
        </mxCell>
        <mxCell id="418" value="&lt;span style=&quot;font-size: 15px;&quot;&gt;NORMAL&lt;/span&gt;" style="text;strokeColor=none;fillColor=none;align=left;verticalAlign=middle;spacingLeft=4;spacingRight=4;overflow=hidden;points=[[0,0.5],[1,0.5]];portConstraint=eastwest;rotatable=0;whiteSpace=wrap;html=1;" vertex="1" parent="417">
          <mxGeometry y="50" width="240" height="30" as="geometry" />
        </mxCell>
        <mxCell id="420" value="&lt;span style=&quot;font-size: 15px;&quot;&gt;GEOMETRIC_BROWNIAN&lt;/span&gt;" style="text;strokeColor=none;fillColor=none;align=left;verticalAlign=middle;spacingLeft=4;spacingRight=4;overflow=hidden;points=[[0,0.5],[1,0.5]];portConstraint=eastwest;rotatable=0;whiteSpace=wrap;html=1;" vertex="1" parent="417">
          <mxGeometry y="80" width="240" height="30" as="geometry" />
        </mxCell>
        <mxCell id="419" value="&lt;span style=&quot;font-size: 15px;&quot;&gt;UNIFORM&lt;/span&gt;" style="text;strokeColor=none;fillColor=none;align=left;verticalAlign=middle;spacingLeft=4;spacingRight=4;overflow=hidden;points=[[0,0.5],[1,0.5]];portConstraint=eastwest;rotatable=0;whiteSpace=wrap;html=1;" vertex="1" parent="417">
          <mxGeometry y="110" width="240" height="30" as="geometry" />
        </mxCell>
        <mxCell id="421" value="&lt;span style=&quot;font-size: 15px;&quot;&gt;FIXED&lt;/span&gt;" style="text;strokeColor=none;fillColor=none;align=left;verticalAlign=middle;spacingLeft=4;spacingRight=4;overflow=hidden;points=[[0,0.5],[1,0.5]];portConstraint=eastwest;rotatable=0;whiteSpace=wrap;html=1;" vertex="1" parent="417">
          <mxGeometry y="140" width="240" height="30" as="geometry" />
        </mxCell>
        <mxCell id="422" value="&lt;font style=&quot;font-size: 20px;&quot;&gt;&amp;lt;&amp;lt;enumeration&amp;gt;&amp;gt;&lt;br&gt;AountType&lt;/font&gt;" style="swimlane;fontStyle=0;childLayout=stackLayout;horizontal=1;startSize=50;horizontalStack=0;resizeParent=1;resizeParentMax=0;resizeLast=0;collapsible=1;marginBottom=0;whiteSpace=wrap;html=1;" vertex="1" parent="1">
          <mxGeometry x="3710" y="160" width="240" height="140" as="geometry" />
        </mxCell>
        <mxCell id="423" value="&lt;span style=&quot;font-size: 15px;&quot;&gt;TAX_DEFERRED&lt;/span&gt;" style="text;strokeColor=none;fillColor=none;align=left;verticalAlign=middle;spacingLeft=4;spacingRight=4;overflow=hidden;points=[[0,0.5],[1,0.5]];portConstraint=eastwest;rotatable=0;whiteSpace=wrap;html=1;" vertex="1" parent="422">
          <mxGeometry y="50" width="240" height="30" as="geometry" />
        </mxCell>
        <mxCell id="424" value="&lt;span style=&quot;font-size: 15px;&quot;&gt;TAX_FREE&lt;/span&gt;" style="text;strokeColor=none;fillColor=none;align=left;verticalAlign=middle;spacingLeft=4;spacingRight=4;overflow=hidden;points=[[0,0.5],[1,0.5]];portConstraint=eastwest;rotatable=0;whiteSpace=wrap;html=1;" vertex="1" parent="422">
          <mxGeometry y="80" width="240" height="30" as="geometry" />
        </mxCell>
        <mxCell id="425" value="&lt;span style=&quot;font-size: 15px;&quot;&gt;TAXABLE&lt;/span&gt;" style="text;strokeColor=none;fillColor=none;align=left;verticalAlign=middle;spacingLeft=4;spacingRight=4;overflow=hidden;points=[[0,0.5],[1,0.5]];portConstraint=eastwest;rotatable=0;whiteSpace=wrap;html=1;" vertex="1" parent="422">
          <mxGeometry y="110" width="240" height="30" as="geometry" />
        </mxCell>
        <mxCell id="431" style="edgeStyle=none;html=1;entryX=-0.005;entryY=0.037;entryDx=0;entryDy=0;entryPerimeter=0;" edge="1" parent="1" source="159" target="215">
          <mxGeometry relative="1" as="geometry" />
        </mxCell>
        <mxCell id="438" value="Text" style="text;html=1;align=center;verticalAlign=middle;resizable=0;points=[];autosize=1;strokeColor=none;fillColor=none;" vertex="1" parent="1">
          <mxGeometry x="1355" y="638" width="50" height="30" as="geometry" />
        </mxCell>
        <mxCell id="448" style="edgeStyle=none;html=1;entryX=0.995;entryY=-0.111;entryDx=0;entryDy=0;entryPerimeter=0;" edge="1" parent="1" source="215" target="230">
          <mxGeometry relative="1" as="geometry">
            <Array as="points">
              <mxPoint x="1670" y="1360" />
            </Array>
          </mxGeometry>
        </mxCell>
        <mxCell id="449" value="&lt;font style=&quot;font-size: 20px;&quot;&gt;ChartConfig&lt;/font&gt;" style="swimlane;fontStyle=0;childLayout=stackLayout;horizontal=1;startSize=26;fillColor=none;horizontalStack=0;resizeParent=1;resizeParentMax=0;resizeLast=0;collapsible=1;marginBottom=0;whiteSpace=wrap;html=1;" vertex="1" parent="1">
          <mxGeometry x="-180" y="1680" width="250" height="130" as="geometry" />
        </mxCell>
        <mxCell id="450" value="&lt;font style=&quot;font-size: 15px;&quot;&gt;+ chart_type: ChartType&lt;/font&gt;" style="text;strokeColor=none;fillColor=none;align=left;verticalAlign=top;spacingLeft=4;spacingRight=4;overflow=hidden;rotatable=0;points=[[0,0.5],[1,0.5]];portConstraint=eastwest;whiteSpace=wrap;html=1;" vertex="1" parent="449">
          <mxGeometry y="26" width="250" height="26" as="geometry" />
        </mxCell>
        <mxCell id="451" value="&lt;font style=&quot;font-size: 15px;&quot;&gt;+ display_currency&lt;/font&gt;" style="text;strokeColor=none;fillColor=none;align=left;verticalAlign=top;spacingLeft=4;spacingRight=4;overflow=hidden;rotatable=0;points=[[0,0.5],[1,0.5]];portConstraint=eastwest;whiteSpace=wrap;html=1;" vertex="1" parent="449">
          <mxGeometry y="52" width="250" height="26" as="geometry" />
        </mxCell>
        <mxCell id="452" value="&lt;span style=&quot;font-size: 15px;&quot;&gt;+ selected_metric: MetricType&lt;/span&gt;" style="text;strokeColor=none;fillColor=none;align=left;verticalAlign=top;spacingLeft=4;spacingRight=4;overflow=hidden;rotatable=0;points=[[0,0.5],[1,0.5]];portConstraint=eastwest;whiteSpace=wrap;html=1;" vertex="1" parent="449">
          <mxGeometry y="78" width="250" height="26" as="geometry" />
        </mxCell>
        <mxCell id="453" value="&lt;span style=&quot;font-size: 15px;&quot;&gt;+ aggregation_threshold: float&lt;/span&gt;" style="text;strokeColor=none;fillColor=none;align=left;verticalAlign=top;spacingLeft=4;spacingRight=4;overflow=hidden;rotatable=0;points=[[0,0.5],[1,0.5]];portConstraint=eastwest;whiteSpace=wrap;html=1;" vertex="1" parent="449">
          <mxGeometry y="104" width="250" height="26" as="geometry" />
        </mxCell>
        <mxCell id="454" value="&lt;span style=&quot;font-size: 20px;&quot;&gt;ResultAggregator&lt;/span&gt;" style="swimlane;fontStyle=0;childLayout=stackLayout;horizontal=1;startSize=26;fillColor=none;horizontalStack=0;resizeParent=1;resizeParentMax=0;resizeLast=0;collapsible=1;marginBottom=0;whiteSpace=wrap;html=1;" vertex="1" parent="1">
          <mxGeometry x="220" y="1820" width="510" height="78" as="geometry" />
        </mxCell>
        <mxCell id="455" value="&lt;span style=&quot;font-size: 15px;&quot;&gt;+ get_percentiles(year: int, metric:MetricType): PercentileRanges&lt;/span&gt;" style="text;strokeColor=none;fillColor=none;align=left;verticalAlign=top;spacingLeft=4;spacingRight=4;overflow=hidden;rotatable=0;points=[[0,0.5],[1,0.5]];portConstraint=eastwest;whiteSpace=wrap;html=1;" vertex="1" parent="454">
          <mxGeometry y="26" width="510" height="26" as="geometry" />
        </mxCell>
        <mxCell id="458" value="&lt;span style=&quot;font-size: 15px;&quot;&gt;+ get_breakdown(year: int, category: Category): Map&amp;lt;string, string&amp;gt;&lt;/span&gt;" style="text;strokeColor=none;fillColor=none;align=left;verticalAlign=top;spacingLeft=4;spacingRight=4;overflow=hidden;rotatable=0;points=[[0,0.5],[1,0.5]];portConstraint=eastwest;whiteSpace=wrap;html=1;" vertex="1" parent="454">
          <mxGeometry y="52" width="510" height="26" as="geometry" />
        </mxCell>
        <mxCell id="460" style="edgeStyle=none;html=1;exitX=1;exitY=0.5;exitDx=0;exitDy=0;entryX=0;entryY=0.5;entryDx=0;entryDy=0;" edge="1" parent="1" source="455" target="181">
          <mxGeometry relative="1" as="geometry" />
        </mxCell>
        <mxCell id="462" value="&lt;font style=&quot;font-size: 20px;&quot;&gt;CurrencyConverter&lt;/font&gt;" style="swimlane;fontStyle=0;childLayout=stackLayout;horizontal=1;startSize=26;fillColor=none;horizontalStack=0;resizeParent=1;resizeParentMax=0;resizeLast=0;collapsible=1;marginBottom=0;whiteSpace=wrap;html=1;" vertex="1" parent="1">
          <mxGeometry x="540" y="2303" width="570" height="52" as="geometry" />
        </mxCell>
        <mxCell id="467" style="edgeStyle=none;html=1;" edge="1" parent="462" source="463">
          <mxGeometry relative="1" as="geometry">
            <mxPoint x="570" y="30" as="targetPoint" />
          </mxGeometry>
        </mxCell>
        <mxCell id="463" value="&lt;font style=&quot;font-size: 15px;&quot;&gt;+ convert(value:float, base_year, target_year, inflation_rates): List&amp;lt;float&amp;gt;&lt;/font&gt;" style="text;strokeColor=none;fillColor=none;align=left;verticalAlign=top;spacingLeft=4;spacingRight=4;overflow=hidden;rotatable=0;points=[[0,0.5],[1,0.5]];portConstraint=eastwest;whiteSpace=wrap;html=1;" vertex="1" parent="462">
          <mxGeometry y="26" width="570" height="26" as="geometry" />
        </mxCell>
        <mxCell id="477" style="edgeStyle=none;html=1;entryX=1;entryY=0.5;entryDx=0;entryDy=0;dashed=1;strokeWidth=3;" edge="1" parent="1" source="468" target="473">
          <mxGeometry relative="1" as="geometry" />
        </mxCell>
        <mxCell id="480" style="edgeStyle=none;html=1;exitX=0.5;exitY=0;exitDx=0;exitDy=0;dashed=1;strokeWidth=3;" edge="1" parent="1" source="468">
          <mxGeometry relative="1" as="geometry">
            <mxPoint x="290" y="1490" as="targetPoint" />
          </mxGeometry>
        </mxCell>
        <mxCell id="468" value="&lt;span style=&quot;font-size: 20px;&quot;&gt;ChartGenerator&lt;/span&gt;" style="swimlane;fontStyle=0;childLayout=stackLayout;horizontal=1;startSize=26;fillColor=none;horizontalStack=0;resizeParent=1;resizeParentMax=0;resizeLast=0;collapsible=1;marginBottom=0;whiteSpace=wrap;html=1;" vertex="1" parent="1">
          <mxGeometry x="160" y="1570" width="660" height="104" as="geometry" />
        </mxCell>
        <mxCell id="469" value="&lt;span style=&quot;font-size: 15px;&quot;&gt;+ generate(config: ChartConfig, aggreagator: ResultAggregator): ChartData&lt;/span&gt;" style="text;strokeColor=none;fillColor=none;align=left;verticalAlign=top;spacingLeft=4;spacingRight=4;overflow=hidden;rotatable=0;points=[[0,0.5],[1,0.5]];portConstraint=eastwest;whiteSpace=wrap;html=1;" vertex="1" parent="468">
          <mxGeometry y="26" width="660" height="26" as="geometry" />
        </mxCell>
        <mxCell id="470" value="&lt;span style=&quot;font-size: 15px;&quot;&gt;+ generate_contour_plot(analysis: CrossAnalysis): ContourData&lt;/span&gt;" style="text;strokeColor=none;fillColor=none;align=left;verticalAlign=top;spacingLeft=4;spacingRight=4;overflow=hidden;rotatable=0;points=[[0,0.5],[1,0.5]];portConstraint=eastwest;whiteSpace=wrap;html=1;" vertex="1" parent="468">
          <mxGeometry y="52" width="660" height="26" as="geometry" />
        </mxCell>
        <mxCell id="471" value="&lt;span style=&quot;font-size: 15px;&quot;&gt;+ generate_stack_bar(config: ChartConfig, aggregator: ResultAggregator): StackBarData&lt;/span&gt;" style="text;strokeColor=none;fillColor=none;align=left;verticalAlign=top;spacingLeft=4;spacingRight=4;overflow=hidden;rotatable=0;points=[[0,0.5],[1,0.5]];portConstraint=eastwest;whiteSpace=wrap;html=1;" vertex="1" parent="468">
          <mxGeometry y="78" width="660" height="26" as="geometry" />
        </mxCell>
        <mxCell id="472" style="edgeStyle=none;html=1;entryX=1.016;entryY=0.92;entryDx=0;entryDy=0;entryPerimeter=0;exitX=0;exitY=0.5;exitDx=0;exitDy=0;strokeWidth=3;" edge="1" parent="1" source="470" target="450">
          <mxGeometry relative="1" as="geometry" />
        </mxCell>
        <mxCell id="473" value="&lt;font style=&quot;font-size: 20px;&quot;&gt;CharData&lt;/font&gt;" style="swimlane;fontStyle=0;childLayout=stackLayout;horizontal=1;startSize=26;fillColor=none;horizontalStack=0;resizeParent=1;resizeParentMax=0;resizeLast=0;collapsible=1;marginBottom=0;whiteSpace=wrap;html=1;" vertex="1" parent="1">
          <mxGeometry x="-250" y="1510" width="190" height="54" as="geometry" />
        </mxCell>
        <mxCell id="478" value="&lt;font style=&quot;font-size: 20px;&quot;&gt;StackBarData&lt;/font&gt;" style="swimlane;fontStyle=0;childLayout=stackLayout;horizontal=1;startSize=26;fillColor=none;horizontalStack=0;resizeParent=1;resizeParentMax=0;resizeLast=0;collapsible=1;marginBottom=0;whiteSpace=wrap;html=1;" vertex="1" parent="1">
          <mxGeometry x="190" y="1430" width="180" height="52" as="geometry" />
        </mxCell>
        <mxCell id="518" style="edgeStyle=none;html=1;entryX=0.5;entryY=0;entryDx=0;entryDy=0;endArrow=diamond;endFill=1;endSize=20;strokeWidth=3;" edge="1" parent="1" source="481" target="487">
          <mxGeometry relative="1" as="geometry">
            <mxPoint x="770" y="2230.0000000000005" as="targetPoint" />
          </mxGeometry>
        </mxCell>
        <mxCell id="481" value="&lt;font style=&quot;font-size: 20px;&quot;&gt;ChartParameterRange&lt;/font&gt;" style="swimlane;fontStyle=0;childLayout=stackLayout;horizontal=1;startSize=26;fillColor=none;horizontalStack=0;resizeParent=1;resizeParentMax=0;resizeLast=0;collapsible=1;marginBottom=0;whiteSpace=wrap;html=1;" vertex="1" parent="1">
          <mxGeometry x="1480" y="2060" width="310" height="146" as="geometry" />
        </mxCell>
        <mxCell id="482" value="&lt;font style=&quot;font-size: 15px;&quot;&gt;+ param_type: ChartParameterType&lt;/font&gt;" style="text;html=1;align=left;verticalAlign=middle;resizable=0;points=[];autosize=1;strokeColor=none;fillColor=none;" vertex="1" parent="481">
          <mxGeometry y="26" width="310" height="30" as="geometry" />
        </mxCell>
        <mxCell id="483" value="&lt;span style=&quot;font-size: 15px;&quot;&gt;+ min_val: float&lt;/span&gt;" style="text;html=1;align=left;verticalAlign=middle;resizable=0;points=[];autosize=1;strokeColor=none;fillColor=none;" vertex="1" parent="481">
          <mxGeometry y="56" width="310" height="30" as="geometry" />
        </mxCell>
        <mxCell id="484" value="&lt;span style=&quot;font-size: 15px;&quot;&gt;+ max_val: float&lt;/span&gt;" style="text;html=1;align=left;verticalAlign=middle;resizable=0;points=[];autosize=1;strokeColor=none;fillColor=none;" vertex="1" parent="481">
          <mxGeometry y="86" width="310" height="30" as="geometry" />
        </mxCell>
        <mxCell id="485" value="&lt;span style=&quot;font-size: 15px;&quot;&gt;+ values: List&amp;lt;float&amp;gt;&lt;/span&gt;" style="text;html=1;align=left;verticalAlign=middle;resizable=0;points=[];autosize=1;strokeColor=none;fillColor=none;" vertex="1" parent="481">
          <mxGeometry y="116" width="310" height="30" as="geometry" />
        </mxCell>
        <mxCell id="487" value="&lt;font style=&quot;font-size: 20px;&quot;&gt;ExplorationEngine&lt;/font&gt;" style="swimlane;fontStyle=0;childLayout=stackLayout;horizontal=1;startSize=26;fillColor=none;horizontalStack=0;resizeParent=1;resizeParentMax=0;resizeLast=0;collapsible=1;marginBottom=0;whiteSpace=wrap;html=1;" vertex="1" parent="1">
          <mxGeometry x="1360" y="2290" width="670" height="78" as="geometry" />
        </mxCell>
        <mxCell id="489" value="&lt;span style=&quot;font-size: 15px;&quot;&gt;+ run_1d_sweep(base_scenario: Scenario, param: ChartParameterRange): ExporationResult&lt;/span&gt;" style="text;strokeColor=none;fillColor=none;align=left;verticalAlign=top;spacingLeft=4;spacingRight=4;overflow=hidden;rotatable=0;points=[[0,0.5],[1,0.5]];portConstraint=eastwest;whiteSpace=wrap;html=1;" vertex="1" parent="487">
          <mxGeometry y="26" width="670" height="26" as="geometry" />
        </mxCell>
        <mxCell id="490" value="&lt;span style=&quot;font-size: 15px;&quot;&gt;+ modify_scenario(scenario: Scenario, param: ChartParameter, value: Any)&lt;/span&gt;" style="text;strokeColor=none;fillColor=none;align=left;verticalAlign=top;spacingLeft=4;spacingRight=4;overflow=hidden;rotatable=0;points=[[0,0.5],[1,0.5]];portConstraint=eastwest;whiteSpace=wrap;html=1;" vertex="1" parent="487">
          <mxGeometry y="52" width="670" height="26" as="geometry" />
        </mxCell>
        <mxCell id="491" value="&lt;span style=&quot;font-size: 20px;&quot;&gt;&lt;font style=&quot;color: light-dark(rgb(192, 192, 192), rgb(255, 255, 255));&quot;&gt;ExplorationResult&lt;/font&gt;&lt;/span&gt;" style="swimlane;fontStyle=0;childLayout=stackLayout;horizontal=1;startSize=26;fillColor=none;horizontalStack=0;resizeParent=1;resizeParentMax=0;resizeLast=0;collapsible=1;marginBottom=0;whiteSpace=wrap;html=1;" vertex="1" parent="1">
          <mxGeometry x="1200" y="2800" width="540" height="78" as="geometry" />
        </mxCell>
        <mxCell id="492" value="&lt;span style=&quot;font-size: 15px;&quot;&gt;+ heatmap_data: Map&amp;lt;Tuple&amp;lt;float. float&amp;gt;, SimulationResult&amp;gt;&lt;/span&gt;" style="text;strokeColor=none;fillColor=none;align=left;verticalAlign=top;spacingLeft=4;spacingRight=4;overflow=hidden;rotatable=0;points=[[0,0.5],[1,0.5]];portConstraint=eastwest;whiteSpace=wrap;html=1;" vertex="1" parent="491">
          <mxGeometry y="26" width="540" height="26" as="geometry" />
        </mxCell>
        <mxCell id="495" value="&lt;span style=&quot;font-size: 15px;&quot;&gt;+ cross_analysis: CrossAnalysis&lt;/span&gt;" style="text;strokeColor=none;fillColor=none;align=left;verticalAlign=top;spacingLeft=4;spacingRight=4;overflow=hidden;rotatable=0;points=[[0,0.5],[1,0.5]];portConstraint=eastwest;whiteSpace=wrap;html=1;" vertex="1" parent="491">
          <mxGeometry y="52" width="540" height="26" as="geometry" />
        </mxCell>
        <mxCell id="496" style="edgeStyle=none;html=1;entryX=0.5;entryY=0;entryDx=0;entryDy=0;dashed=1;strokeWidth=3;" edge="1" parent="1" source="490" target="491">
          <mxGeometry relative="1" as="geometry" />
        </mxCell>
        <mxCell id="498" style="edgeStyle=none;html=1;exitX=1;exitY=0.5;exitDx=0;exitDy=0;entryX=0.007;entryY=1.009;entryDx=0;entryDy=0;entryPerimeter=0;strokeWidth=3;" edge="1" parent="1" source="489" target="229">
          <mxGeometry relative="1" as="geometry" />
        </mxCell>
        <mxCell id="499" value="ChartCache" style="swimlane;fontStyle=1;align=center;verticalAlign=top;childLayout=stackLayout;horizontal=1;startSize=40;horizontalStack=0;resizeParent=1;resizeParentMax=0;resizeLast=0;collapsible=1;marginBottom=0;fontSize=20;" vertex="1" parent="1">
          <mxGeometry x="360" y="1264" width="360" height="104" as="geometry" />
        </mxCell>
        <mxCell id="500" value="- cache: LRUCache" style="text;strokeColor=none;fillColor=none;align=left;verticalAlign=top;spacingLeft=4;spacingRight=4;overflow=hidden;rotatable=0;points=[[0,0.5],[1,0.5]];portConstraint=eastwest;fontSize=15;" vertex="1" parent="499">
          <mxGeometry y="40" width="360" height="26" as="geometry" />
        </mxCell>
        <mxCell id="502" value="" style="line;strokeWidth=1;fillColor=none;align=left;verticalAlign=middle;spacingTop=-1;spacingLeft=3;spacingRight=3;rotatable=0;labelPosition=right;points=[];portConstraint=eastwest;strokeColor=inherit;" vertex="1" parent="499">
          <mxGeometry y="66" width="360" height="8" as="geometry" />
        </mxCell>
        <mxCell id="504" value="+ get_key(config: ChartConfig): str" style="text;html=1;align=center;verticalAlign=middle;resizable=0;points=[];autosize=1;strokeColor=none;fillColor=none;fontSize=15;" vertex="1" parent="499">
          <mxGeometry y="74" width="360" height="30" as="geometry" />
        </mxCell>
        <mxCell id="505" style="edgeStyle=none;html=1;entryX=0.75;entryY=0;entryDx=0;entryDy=0;endArrow=diamondThin;endFill=0;endSize=20;strokeWidth=3;" edge="1" parent="1" source="504" target="468">
          <mxGeometry relative="1" as="geometry" />
        </mxCell>
        <mxCell id="506" value="&lt;span style=&quot;font-size: 20px;&quot;&gt;&lt;font style=&quot;color: light-dark(rgb(192, 192, 192), rgb(255, 255, 255));&quot;&gt;CrossAnalysis&lt;/font&gt;&lt;/span&gt;" style="swimlane;fontStyle=0;childLayout=stackLayout;horizontal=1;startSize=26;fillColor=none;horizontalStack=0;resizeParent=1;resizeParentMax=0;resizeLast=0;collapsible=1;marginBottom=0;whiteSpace=wrap;html=1;" vertex="1" parent="1">
          <mxGeometry x="1020" y="2520" width="540" height="78" as="geometry" />
        </mxCell>
        <mxCell id="507" value="&lt;span style=&quot;font-size: 15px;&quot;&gt;+ get_sensitivity_matrix(): List&amp;lt;List&amp;lt;float&amp;gt;&amp;gt;&lt;/span&gt;" style="text;strokeColor=none;fillColor=none;align=left;verticalAlign=top;spacingLeft=4;spacingRight=4;overflow=hidden;rotatable=0;points=[[0,0.5],[1,0.5]];portConstraint=eastwest;whiteSpace=wrap;html=1;" vertex="1" parent="506">
          <mxGeometry y="26" width="540" height="26" as="geometry" />
        </mxCell>
        <mxCell id="508" value="&lt;span style=&quot;font-size: 15px;&quot;&gt;- find_optimal_params(): Map&amp;lt;String, Any&amp;gt;&lt;/span&gt;" style="text;strokeColor=none;fillColor=none;align=left;verticalAlign=top;spacingLeft=4;spacingRight=4;overflow=hidden;rotatable=0;points=[[0,0.5],[1,0.5]];portConstraint=eastwest;whiteSpace=wrap;html=1;" vertex="1" parent="506">
          <mxGeometry y="52" width="540" height="26" as="geometry" />
        </mxCell>
        <mxCell id="509" style="edgeStyle=none;html=1;entryX=0.494;entryY=1.138;entryDx=0;entryDy=0;entryPerimeter=0;endArrow=none;endFill=0;endSize=20;strokeWidth=3;startArrow=diamond;startFill=1;" edge="1" parent="1" source="491" target="508">
          <mxGeometry relative="1" as="geometry" />
        </mxCell>
        <mxCell id="510" value="&lt;span style=&quot;font-size: 20px;&quot;&gt;YearlyDetails&lt;/span&gt;" style="swimlane;fontStyle=0;childLayout=stackLayout;horizontal=1;startSize=37;fillColor=none;horizontalStack=0;resizeParent=1;resizeParentMax=0;resizeLast=0;collapsible=1;marginBottom=0;whiteSpace=wrap;html=1;" vertex="1" parent="1">
          <mxGeometry x="830" y="2029" width="400" height="115" as="geometry" />
        </mxCell>
        <mxCell id="512" value="&lt;span style=&quot;font-size: 15px;&quot;&gt;+ investments: Map&amp;lt;String, float&amp;gt;&lt;/span&gt;" style="text;strokeColor=none;fillColor=none;align=left;verticalAlign=top;spacingLeft=4;spacingRight=4;overflow=hidden;rotatable=0;points=[[0,0.5],[1,0.5]];portConstraint=eastwest;whiteSpace=wrap;html=1;" vertex="1" parent="510">
          <mxGeometry y="37" width="400" height="26" as="geometry" />
        </mxCell>
        <mxCell id="513" value="&lt;span style=&quot;font-size: 15px;&quot;&gt;+ investment_breakdown:Map&amp;lt;String, float&amp;gt;&lt;/span&gt;" style="text;strokeColor=none;fillColor=none;align=left;verticalAlign=top;spacingLeft=4;spacingRight=4;overflow=hidden;rotatable=0;points=[[0,0.5],[1,0.5]];portConstraint=eastwest;whiteSpace=wrap;html=1;" vertex="1" parent="510">
          <mxGeometry y="63" width="400" height="26" as="geometry" />
        </mxCell>
        <mxCell id="514" value="&lt;span style=&quot;font-size: 15px;&quot;&gt;+ expense_breakdown: Map&amp;lt;String, float&amp;gt;&lt;/span&gt;" style="text;strokeColor=none;fillColor=none;align=left;verticalAlign=top;spacingLeft=4;spacingRight=4;overflow=hidden;rotatable=0;points=[[0,0.5],[1,0.5]];portConstraint=eastwest;whiteSpace=wrap;html=1;" vertex="1" parent="510">
          <mxGeometry y="89" width="400" height="26" as="geometry" />
        </mxCell>
        <mxCell id="515" style="edgeStyle=none;html=1;entryX=0.567;entryY=1.021;entryDx=0;entryDy=0;entryPerimeter=0;endArrow=diamond;endFill=1;strokeWidth=3;endSize=20;" edge="1" parent="1" source="510" target="183">
          <mxGeometry relative="1" as="geometry" />
        </mxCell>
      </root>
    </mxGraphModel>
  </diagram>
</mxfile>
